  0
SECTION
  2
HEADER
  9
$ACADVER
  1
AC1015
  9
$DWGCODEPAGE
  3
ansi_1252
  9
$INSBASE
 10
0
 20
0
 30
0
  9
$EXTMIN
 10
0
 20
-105
 30
0
  9
$EXTMAX
 10
1000.0000001
 20
1000.0000001
 30
0
  9
$LIMMIN
 10
0
 20
0
  9
$LIMMAX
 10
12
 20
9
  9
$SNAPMODE
 70
0
  9
$SNAPUNIT
 10
1
 20
1
  9
$SNAPBASE
 10
0
 20
0
  9
$SNAPANG
 50
0
  9
$SNAPSTYLE
 70
0
  9
$SNAPISOPAIR
 70
0
  9
$ORTHOMODE
 70
0
  9
$REGENMODE
 70
1
  9
$FILLMODE
 70
1
  9
$QTEXTMODE
 70
0
  9
$MIRRTEXT
 70
1
  9
$LTSCALE
 40
1
  9
$OSMODE
 70
0
  9
$ATTMODE
 70
1
  9
$TEXTSIZE
 40
0.2
  9
$TRACEWID
 40
0.05
  9
$TEXTSTYLE
  7
Standard
  9
$CLAYER
  8
0
  9
$CELTYPE
  6
ByLayer
  9
$CECOLOR
 62
256
  9
$CELTSCALE
 40
1
  9
$DISPSILH
 70
0
  9
$DIMSCALE
 40
1
  9
$DIMASZ
 40
0.18
  9
$DIMEXO
 40
0.0625
  9
$DIMDLI
 40
0.38
  9
$DIMRND
 40
0
  9
$DIMDLE
 40
0
  9
$DIMEXE
 40
0.18
  9
$DIMTP
 40
0
  9
$DIMTM
 40
0
  9
$DIMTXT
 40
0.18
  9
$DIMCEN
 40
0.09
  9
$DIMTSZ
 40
0
  9
$DIMTOL
 70
0
  9
$DIMLIM
 70
0
  9
$DIMTIH
 70
1
  9
$DIMTOH
 70
1
  9
$DIMSE1
 70
0
  9
$DIMSE2
 70
0
  9
$DIMTAD
 70
0
  9
$DIMZIN
 70
0
  9
$DIMBLK
  1

  9
$DIMASO
 70
1
  9
$DIMSHO
 70
1
  9
$DIMPOST
  1

  9
$DIMAPOST
  1

  9
$DIMALT
 70
0
  9
$DIMALTD
 70
2
  9
$DIMALTF
 40
0.03937007874015748
  9
$DIMLFAC
 40
1
  9
$DIMTOFL
 70
0
  9
$DIMTVP
 40
0
  9
$DIMTIX
 70
0
  9
$DIMSOXD
 70
0
  9
$DIMSAH
 70
0
  9
$DIMBLK1
  1

  9
$DIMBLK2
  1

  9
$DIMSTYLE
  2
Standard
  9
$DIMCLRD
 70
0
  9
$DIMCLRE
 70
0
  9
$DIMCLRT
 70
0
  9
$DIMTFAC
 40
1
  9
$DIMGAP
 40
0.09
  9
$DIMJUST
 70
0
  9
$DIMSD1
 70
0
  9
$DIMSD2
 70
0
  9
$DIMTOLJ
 70
1
  9
$DIMTZIN
 70
0
  9
$DIMALTZ
 70
0
  9
$DIMALTTZ
 70
0
  9
$DIMUPT
 70
0
  9
$DIMDEC
 70
4
  9
$DIMTDEC
 70
4
  9
$DIMALTU
 70
2
  9
$DIMALTTD
 70
0
  9
$DIMTXSTY
  7
Standard
  9
$DIMAUNIT
 70
0
  9
$DIMADEC
 70
0
  9
$DIMALTRND
 40
0
  9
$DIMAZIN
 70
0
  9
$DIMDSEP
 70
46
  9
$DIMATFIT
 70
0
  9
$DIMFRAC
 70
0
  9
$DIMLDRBLK
  1

  9
$DIMLUNIT
 70
2
  9
$DIMLWD
 70
-2
  9
$DIMLWE
 70
-2
  9
$LUNITS
 70
2
  9
$LUPREC
 70
4
  9
$SKETCHINC
 40
0.1
  9
$FILLETRAD
 40
0
  9
$AUNITS
 70
0
  9
$AUPREC
 70
0
  9
$MENU
  1
.
  9
$ELEVATION
 40
0
  9
$PELEVATION
 40
0
  9
$THICKNESS
 40
0
  9
$LIMCHECK
 70
0
  9
$CHAMFERA
 40
0.5
  9
$CHAMFERB
 40
0.5
  9
$CHAMFERC
 40
0
  9
$CHAMFERD
 40
0
  9
$SKPOLY
 70
0
  9
$TDCREATE
 40
2461117.7778029167
  9
$TDUCREATE
 40
2461117.9028029167
  9
$TDUPDATE
 40
2461117.7778029167
  9
$TDUUPDATE
 40
2461117.9028029167
  9
$TDINDWG
 40
0
  9
$TDUSRTIMER
 40
1.1574074074074074E-08
  9
$USRTIMER
 70
1
  9
$ANGBASE
 50
0
  9
$ANGDIR
 70
1
  9
$PDMODE
 70
0
  9
$PDSIZE
 40
0
  9
$PLINEWID
 40
0
  9
$SPLFRAME
 70
0
  9
$SPLINETYPE
 70
6
  9
$SPLINESEGS
 70
8
  9
$HANDSEED
  5
EE
  9
$SURFTAB1
 70
6
  9
$SURFTAB2
 70
6
  9
$SURFTYPE
 70
6
  9
$SURFU
 70
6
  9
$SURFV
 70
6
  9
$UCSORG
 10
0
 20
0
 30
0
  9
$UCSXDIR
 10
1
 20
0
 30
0
  9
$UCSYDIR
 10
0
 20
1
 30
0
  9
$UCSORTHOREF
  2

  9
$UCSORTHOVIEW
 70
0
  9
$UCSORGTOP
 10
0
 20
0
 30
0
  9
$UCSORGBOTTOM
 10
0
 20
0
 30
0
  9
$UCSORGLEFT
 10
0
 20
0
 30
0
  9
$UCSORGRIGHT
 10
0
 20
0
 30
0
  9
$UCSORGFRONT
 10
0
 20
0
 30
0
  9
$UCSORGBACK
 10
0
 20
0
 30
0
  9
$PUCSORG
 10
0
 20
0
 30
0
  9
$PUCSXDIR
 10
1
 20
0
 30
0
  9
$PUCSYDIR
 10
0
 20
1
 30
0
  9
$PUCSORTHOREF
  2

  9
$PUCSORTHOVIEW
 70
0
  9
$PUCSORGTOP
 10
0
 20
0
 30
0
  9
$PUCSORGBOTTOM
 10
0
 20
0
 30
0
  9
$PUCSORGLEFT
 10
0
 20
0
 30
0
  9
$PUCSORGRIGHT
 10
0
 20
0
 30
0
  9
$PUCSORGFRONT
 10
0
 20
0
 30
0
  9
$PUCSORGBACK
 10
0
 20
0
 30
0
  9
$USERI1
 70
0
  9
$USERI2
 70
0
  9
$USERI3
 70
0
  9
$USERI4
 70
0
  9
$USERI5
 70
0
  9
$USERR1
 40
0
  9
$USERR2
 40
0
  9
$USERR3
 40
0
  9
$USERR4
 40
0
  9
$USERR5
 40
0
  9
$WORLDVIEW
 70
1
  9
$SHADEDGE
 70
3
  9
$SHADEDIF
 70
70
  9
$TILEMODE
 70
1
  9
$MAXACTVP
 70
48
  9
$PINSBASE
 10
0
 20
0
 30
0
  9
$PLIMCHECK
 70
0
  9
$PEXTMIN
 10
1E+20
 20
1E+20
 30
1E+20
  9
$PEXTMAX
 10
-1E+20
 20
-1E+20
 30
-1E+20
  9
$PLIMMAX
 10
0
 20
0
  9
$PLIMMIN
 10
0
 20
0
  9
$UNITMODE
 70
0
  9
$VISRETAIN
 70
1
  9
$PLINEGEN
 70
1
  9
$PSLTSCALE
 70
1
  9
$TREEDEPTH
 70
3020
  9
$CMLSTYLE
  2
STANDARD
  9
$CMLJUST
 70
0
  9
$CMLSCALE
 40
1
  9
$PROXYGRAPHICS
 70
1
  9
$MEASUREMENT
 70
1
  9
$CELWEIGHT
370
-1
  9
$ENDCAPS
280
0
  9
$JOINSTYLE
280
0
  9
$LWDISPLAY
290
1
  9
$INSUNITS
 70
4
  9
$HYPERLINKBASE
  1

  9
$XEDIT
290
1
  9
$CEPSNTYPE
380
0
  9
$PSTYLEMODE
290
0
  9
$FINGERPRINTGUID
  2

  9
$VERSIONGUID
  2

  9
$EXTNAMES
290
1
  9
$PSVPSCALE
 40
0
  9
$CSHADOW
280
0
  9
$SHADOWPLANELOCATION
 40
0
  0
ENDSEC
  0
SECTION
  2
CLASSES
  0
CLASS
  1
RASTERVARIABLES
  2
AcDbRasterVariables
  3
ISM
 90
0
280
0
281
0
  0
CLASS
  1
IMAGEDEF
  2
AcDbRasterImageDef
  3
ISM
 90
0
280
0
281
0
  0
CLASS
  1
IMAGEDEF_REACTOR
  2
AcDbRasterImageDefReactor
  3
ISM
 90
1
280
0
281
0
  0
CLASS
  1
IMAGE
  2
AcDbRasterImage
  3
ISM
 90
127
280
0
281
1
  0
CLASS
  1
ACAD_EVALUATION_GRAPH
  2
AcDbEvalGraph
  3
ObjectDBX Classes
 90
1153
280
0
281
0
  0
CLASS
  1
BLOCKPOINTPARAMETER
  2
AcDbBlockPointParameter
  3
ObjectDBX Classes
 90
1153
280
0
281
0
  0
CLASS
  1
BLOCKBASEPOINTPARAMETER
  2
AcDbBlockBasepointParameter
  3
ObjectDBX Classes
 90
1153
280
0
281
0
  0
CLASS
  1
BLOCKLOOKUPPARAMETER
  2
AcDbBlockLookupParameter
  3
ObjectDBX Classes
 90
1153
280
0
281
0
  0
CLASS
  1
BLOCKVISIBILITYPARAMETER
  2
AcDbBlockVisibilityParameter
  3
ObjectDBX Classes
 90
1153
280
0
281
0
  0
CLASS
  1
BLOCKPROPERTIESTABLE
  2
AcDbBlockPropertiesTable
  3
ObjectDBX Classes
 90
1153
280
0
281
0
  0
CLASS
  1
BLOCKPOLARPARAMETER
  2
AcDbBlockPolarParameter
  3
ObjectDBX Classes
 90
1153
280
0
281
0
  0
CLASS
  1
BLOCKROTATIONPARAMETER
  2
AcDbBlockRotationParameter
  3
ObjectDBX Classes
 90
1153
280
0
281
0
  0
CLASS
  1
BLOCKLINEARPARAMETER
  2
AcDbBlockLinearParameter
  3
ObjectDBX Classes
 90
1153
280
0
281
0
  0
CLASS
  1
BLOCKXYPARAMETER
  2
AcDbBlockXYParameter
  3
ObjectDBX Classes
 90
1153
280
0
281
0
  0
CLASS
  1
BLOCKFLIPPARAMETER
  2
AcDbBlockFlipParameter
  3
ObjectDBX Classes
 90
1153
280
0
281
0
  0
CLASS
  1
BLOCKALIGNMENTPARAMETER
  2
AcDbBlockAlignmentParameter
  3
ObjectDBX Classes
 90
1153
280
0
281
0
  0
CLASS
  1
BLOCKROTATEACTION
  2
AcDbBlockRotateAction
  3
ObjectDBX Classes
 90
1153
280
0
281
0
  0
CLASS
  1
BLOCKSCALEACTION
  2
AcDbBlockScaleAction
  3
ObjectDBX Classes
 90
1153
280
0
281
0
  0
CLASS
  1
BLOCKARRAYACTION
  2
AcDbBlockArrayAction
  3
ObjectDBX Classes
 90
1153
280
0
281
0
  0
CLASS
  1
BLOCKFLIPACTION
  2
AcDbBlockFlipAction
  3
ObjectDBX Classes
 90
1153
280
0
281
0
  0
CLASS
  1
BLOCKLOOKUPACTION
  2
AcDbBlockLookupAction
  3
ObjectDBX Classes
 90
1153
280
0
281
0
  0
CLASS
  1
BLOCKMOVEACTION
  2
AcDbBlockMoveAction
  3
ObjectDBX Classes
 90
1153
280
0
281
0
  0
CLASS
  1
BLOCKPOLARSTRETCHACTION
  2
AcDbBlockPolarStretchAction
  3
ObjectDBX Classes
 90
1153
280
0
281
0
  0
CLASS
  1
BLOCKSTRETCHACTION
  2
AcDbBlockStretchAction
  3
ObjectDBX Classes
 90
1153
280
0
281
0
  0
CLASS
  1
BLOCKALIGNMENTGRIP
  2
AcDbBlockAlignmentGrip
  3
ObjectDBX Classes
 90
1153
280
0
281
0
  0
CLASS
  1
BLOCKFLIPGRIP
  2
AcDbBlockFlipGrip
  3
ObjectDBX Classes
 90
1153
280
0
281
0
  0
CLASS
  1
ACDB_BLOCKREPRESENTATION_DATA
  2
AcDbBlockRepresentationData
  3
ObjectDBX Classes
 90
1153
280
0
281
0
  0
CLASS
  1
ACDB_DYNAMICBLOCKPURGEPREVENTER_VERSION
  2
AcDbDynamicBlockPurgePreventer
  3
ObjectDBX Classes
 90
1153
280
0
281
0
  0
CLASS
  1
BLOCKLINEARGRIP
  2
AcDbBlockLinearGrip
  3
ObjectDBX Classes
 90
1153
280
0
281
0
  0
CLASS
  1
BLOCKLOOKUPGRIP
  2
AcDbBlockLookupGrip
  3
ObjectDBX Classes
 90
1153
280
0
281
0
  0
CLASS
  1
BLOCKPOLARGRIP
  2
AcDbBlockPolarGrip
  3
ObjectDBX Classes
 90
1153
280
0
281
0
  0
CLASS
  1
BLOCKPROPERTIESTABLEGRIP
  2
AcDbBlockPropertiesTableGrip
  3
ObjectDBX Classes
 90
1153
280
0
281
0
  0
CLASS
  1
BLOCKROTATIONGRIP
  2
AcDbBlockRotationGrip
  3
ObjectDBX Classes
 90
1153
280
0
281
0
  0
CLASS
  1
BLOCKVISIBILITYGRIP
  2
AcDbBlockVisibilityGrip
  3
ObjectDBX Classes
 90
1153
280
0
281
0
  0
CLASS
  1
BLOCKXYGRIP
  2
AcDbBlockXYGrip
  3
ObjectDBX Classes
 90
1153
280
0
281
0
  0
CLASS
  1
BLOCKGRIPLOCATIONCOMPONENT
  2
AcDbBlockGripExpr
  3
ObjectDBX Classes
 90
1153
280
0
281
0
  0
CLASS
  1
ACDB_DYNAMICBLOCKPROXYNODE
  2
AcDbDynamicBlockProxyNode
  3
ObjectDBX Classes
 90
1153
280
0
281
0
  0
CLASS
  1
BLOCKLINEARCONSTRAINTPARAMETER
  2
AcDbBlockLinearConstraintParameter
  3
ObjectDBX Classes
 90
1153
280
0
281
0
  0
CLASS
  1
BLOCKHORIZONTALCONSTRAINTPARAMETER
  2
AcDbBlockHorizontalConstraintParameter
  3
ObjectDBX Classes
 90
1153
280
0
281
0
  0
CLASS
  1
BLOCKVERTICALCONSTRAINTPARAMETER
  2
AcDbBlockVerticalConstraintParameter
  3
ObjectDBX Classes
 90
1153
280
0
281
0
  0
CLASS
  1
BLOCKALIGNEDCONSTRAINTPARAMETER
  2
AcDbBlockAlignedConstraintParameter
  3
ObjectDBX Classes
 90
1153
280
0
281
0
  0
CLASS
  1
BLOCKANGULARCONSTRAINTPARAMETER
  2
AcDbBlockAngularConstraintParameter
  3
ObjectDBX Classes
 90
1153
280
0
281
0
  0
CLASS
  1
BLOCKDIAMETRICCONSTRAINTPARAMETER
  2
AcDbBlockDiametricConstraintParameter
  3
ObjectDBX Classes
 90
1153
280
0
281
0
  0
CLASS
  1
BLOCKRADIALCONSTRAINTPARAMETER
  2
AcDbBlockRadialConstraintParameter
  3
ObjectDBX Classes
 90
1153
280
0
281
0
  0
ENDSEC
  0
SECTION
  2
TABLES
  0
TABLE
  2
VPORT
  5
8
330
0
100
AcDbSymbolTable
 70
1
  0
VPORT
  5
C9
330
8
100
AcDbSymbolTableRecord
100
AcDbViewportTableRecord
  2
*Active
 70
64
 10
0
 20
0
 11
1
 21
1
 12
500.00000005
 22
447.50000005
 13
0
 23
0
 14
1
 24
1
 15
0
 25
0
 16
0
 26
0
 36
1
 17
0
 27
0
 37
0
 40
1105.0000000999999
 41
0.90497737557421032
 42
50
 43
0
 44
0
 50
0
 51
0
 71
0
 72
20000
 73
20000
 74
1
 75
0
 76
0
 77
0
 78
0
281
0
 65
1
110
0
120
0
130
0
111
1
121
0
131
0
112
0
122
1
132
0
 79
0
146
0
  0
ENDTAB
  0
TABLE
  2
LTYPE
  5
5
100
AcDbSymbolTable
 70
3
  0
LTYPE
  5
16
330
5
100
AcDbSymbolTableRecord
100
AcDbLinetypeTableRecord
  2
Continuous
  3
Solid line
 70
64
 72
65
 73
0
 40
0
  0
LTYPE
  5
14
330
5
100
AcDbSymbolTableRecord
100
AcDbLinetypeTableRecord
  2
ByBlock
  3

 70
64
 72
65
 73
0
 40
0
  0
LTYPE
  5
15
330
5
100
AcDbSymbolTableRecord
100
AcDbLinetypeTableRecord
  2
ByLayer
  3

 70
64
 72
65
 73
0
 40
0
  0
ENDTAB
  0
TABLE
  2
LAYER
  5
2
100
AcDbSymbolTable
 70
7
  0
LAYER
  5
10
330
2
100
AcDbSymbolTableRecord
100
AcDbLayerTableRecord
 70
64
  2
0
 62
7
  6
Continuous
370
-3
390
F
  0
LAYER
  5
27
330
2
100
AcDbSymbolTableRecord
100
AcDbLayerTableRecord
 70
64
  2
sheet
 62
24
  6
Continuous
370
-3
390
F
  0
LAYER
  5
28
330
2
100
AcDbSymbolTableRecord
100
AcDbLayerTableRecord
 70
64
  2
--NestedParts--
 62
7
  6
Continuous
370
-3
390
F
  0
LAYER
  5
29
330
2
100
AcDbSymbolTableRecord
100
AcDbLayerTableRecord
 70
64
  2
DT-20768-004-132
 62
7
  6
Continuous
370
-3
390
F
  0
LAYER
  5
2A
330
2
100
AcDbSymbolTableRecord
100
AcDbLayerTableRecord
 70
64
  2
Texto
 62
7
  6
Continuous
370
-3
390
F
  0
LAYER
  5
2B
330
2
100
AcDbSymbolTableRecord
100
AcDbLayerTableRecord
 70
64
  2
Stats
 62
7
  6
Continuous
370
-3
390
F
  0
LAYER
  5
2C
330
2
100
AcDbSymbolTableRecord
100
AcDbLayerTableRecord
 70
64
  2
DEFPOINTS
 62
7
  6
Continuous
290
0
370
-3
390
F
  0
ENDTAB
  0
TABLE
  2
STYLE
  5
3
100
AcDbSymbolTable
 70
1
  0
STYLE
  5
11
330
3
100
AcDbSymbolTableRecord
100
AcDbTextStyleTableRecord
  2
Standard
 70
64
 40
0
 41
1
 50
0
 71
0
 42
0.2
  3
txt.shx
  0
ENDTAB
  0
TABLE
  2
VIEW
  5
6
100
AcDbSymbolTable
 70
0
  0
ENDTAB
  0
TABLE
  2
UCS
  5
7
100
AcDbSymbolTable
 70
0
  0
ENDTAB
  0
TABLE
  2
APPID
  5
9
330
0
100
AcDbSymbolTable
 70
2
  0
APPID
  5
12
330
0
100
AcDbSymbolTableRecord
100
AcDbRegAppTableRecord
  2
ACAD
 70
64
  0
APPID
  5
EC
330
0
100
AcDbSymbolTableRecord
100
AcDbRegAppTableRecord
  2
ACAD_MLEADERVER
 70
64
  0
ENDTAB
  0
TABLE
  2
DIMSTYLE
  5
A
330
0
100
AcDbSymbolTable
 70
1
100
AcDbDimStyleTable
 71
0
  0
DIMSTYLE
105
C8
330
A
100
AcDbSymbolTableRecord
100
AcDbDimStyleTableRecord
  2
Standard
 70
64
  3

  4

 40
1
 41
0.18
 42
0.0625
 43
0.38
 44
0.18
 45
0
 46
0
 47
0
 48
0
140
0.18
141
0.09
142
0
143
1
144
1
145
0
146
1
147
0.09
148
0
 71
0
 72
0
 73
1
 74
1
 75
0
 76
0
 77
0
 78
0
 79
0
170
0
171
2
172
0
173
0
174
0
175
0
179
0
271
4
272
4
273
2
274
0
275
0
276
0
277
2
278
46
279
0
280
0
281
0
282
0
283
1
284
0
285
0
286
0
288
0
289
0
340
11
371
-2
372
-2
  0
ENDTAB
  0
TABLE
  2
BLOCK_RECORD
  5
1
330
0
100
AcDbSymbolTable
 70
3
  0
BLOCK_RECORD
  5
1F
330
1
100
AcDbSymbolTableRecord
100
AcDbBlockTableRecord
  2
*Model_Space
340
22
  0
BLOCK_RECORD
  5
C5
330
1
100
AcDbSymbolTableRecord
100
AcDbBlockTableRecord
  2
*Paper_Space
340
1E
  0
ENDTAB
  0
ENDSEC
  0
SECTION
  2
BLOCKS
  0
BLOCK
  5
20
330
1F
100
AcDbEntity
  8
0
100
AcDbBlockBegin
  2
*Model_Space
 70
64
 10
0
 20
0
 30
0
  3
*Model_Space
  0
ENDBLK
  5
21
330
1F
100
AcDbEntity
  8
0
100
AcDbBlockEnd
  0
BLOCK
  5
C6
330
C5
100
AcDbEntity
  8
0
 67
1
100
AcDbBlockBegin
  2
*Paper_Space
 70
64
 10
0
 20
0
 30
0
  3
*Paper_Space
  0
ENDBLK
  5
C7
330
C5
100
AcDbEntity
  8
0
100
AcDbBlockEnd
  0
ENDSEC
  0
SECTION
  2
ENTITIES
  0
LWPOLYLINE
  5
2D
330
1F
100
AcDbEntity
  8
sheet
 62
7
100
AcDbPolyline
 90
4
 70
1
 10
1E-07
 20
1E-07
 10
1000.0000001
 20
1E-07
 10
1000.0000001
 20
1000.0000001
 10
1.0000000000000001E-07
 20
1000.0000001
  0
LWPOLYLINE
  5
2E
330
1F
100
AcDbEntity
  8
--NestedParts--
 62
7
100
AcDbPolyline
 90
13
 70
1
 10
643.19354343617636
 20
371.88221444885266
 42
-0.080166838566949061
 10
618.28396013479835
 20
345.01039315347475
 10
616.85895856422633
 20
346.43541659062885
 42
-0.13501580757626597
 10
561.48670088725919
 20
323.49926315536982
 10
561.48668542521216
 20
321.4839857239408
 42
-0.28360421089623677
 10
451.76148742793555
 20
371.8825591260067
 42
0.47343050356493244
 10
448.68264531645616
 20
372.18816469757365
 10
447.98594152692738
 20
371.49146092869063
 42
0.34560774551103135
 10
447.69055198644844
 20
369.03933728068267
 42
0.050356708500250362
 10
462.00256223062649
 20
350.15245256204679
 42
0.47244898358152859
 10
647.87228324968044
 20
368.30079375436185
 42
0.35732547909201962
 10
647.62816958307928
 20
370.83202868416083
 10
646.27238265007838
 20
372.18781561716264
 42
0.47342970239778559
  0
MTEXT
  5
2F
330
1F
100
AcDbEntity
  8
Texto
 62
3
100
AcDbMText
 10
581.32641280377231
 20
321.00369582759868
 30
0
 11
-1
 21
1.2246063538223773E-16
 31
0
 40
2.5
 41
6.0400674662014353
 71
1
 72
5
  1
72x
  7
Standard
 73
1
  0
LWPOLYLINE
  5
30
330
1F
100
AcDbEntity
  8
--NestedParts--
 62
7
100
AcDbPolyline
 90
13
 70
1
 10
212.00069351312402
 20
371.88221444885261
 42
-0.080166838566949034
 10
187.091110211746
 20
345.01039315347469
 10
185.666108641174
 20
346.43541659062879
 42
-0.13501580757626602
 10
130.29385096420685
 20
323.49926315536976
 10
130.29383550215982
 20
321.48398572394075
 42
-0.28360421089623705
 10
20.56863750488322
 20
371.8825591260067
 42
0.47343050356493255
 10
17.489795393403831
 20
372.18816469757365
 10
16.793091603875048
 20
371.49146092869063
 42
0.34560774551102708
 10
16.497702063396112
 20
369.03933728068267
 42
0.050356708500250348
 10
30.809712307574166
 20
350.15245256204679
 42
0.47244898358152843
 10
216.6794333266281
 20
368.30079375436179
 42
0.35732547909200957
 10
216.43531966002695
 20
370.83202868416078
 10
215.07953272702605
 20
372.18781561716258
 42
0.47342970239778487
  0
MTEXT
  5
31
330
1F
100
AcDbEntity
  8
Texto
 62
3
100
AcDbMText
 10
150.13356288071998
 20
321.00369582759862
 30
0
 11
-1
 21
1.2246063538223773E-16
 31
0
 40
2.5
 41
6.0400674662014353
 71
1
 72
5
  1
72x
  7
Standard
 73
1
  0
LWPOLYLINE
  5
32
330
1F
100
AcDbEntity
  8
--NestedParts--
 62
7
100
AcDbPolyline
 90
13
 70
1
 10
925.96585433106645
 20
514.69803656661861
 42
-0.080166838566948811
 10
952.83767562644437
 20
489.78845326524078
 10
951.41265218929027
 20
488.36345169466875
 42
-0.13501580757626597
 10
974.3488056245493
 20
432.99119401770162
 10
976.36408305597831
 20
432.99117855565459
 42
-0.28360421089623689
 10
925.96550965391236
 20
323.265980558378
 42
0.47343050356491906
 10
925.65990408234541
 20
320.18713844689859
 10
926.35660785122843
 20
319.4904346573698
 42
0.34560774551103135
 10
928.80873149923639
 20
319.19504511689087
 42
0.050356708500250376
 10
947.69561621787227
 20
333.50705536106892
 42
0.47244898358152809
 10
929.54727502555727
 20
519.37677638012281
 42
0.35732547909200979
 10
927.01604009575829
 20
519.13266271352154
 10
925.66025316275648
 20
517.77687578052064
 42
0.47342970239778559
  0
MTEXT
  5
33
330
1F
100
AcDbEntity
  8
Texto
 62
3
100
AcDbMText
 10
976.84437295232044
 20
452.83090593421474
 30
0
 11
-1.8369095307335659E-16
 21
-1
 31
0
 40
2.5
 41
6.0400674662014353
 71
1
 72
5
  1
72x
  7
Standard
 73
1
  0
LWPOLYLINE
  5
34
330
1F
100
AcDbEntity
  8
--NestedParts--
 62
7
100
AcDbPolyline
 90
13
 70
1
 10
886.23335425988932
 20
514.6844404724103
 42
-0.080166838566948811
 10
913.10517555526724
 20
489.77485717103247
 10
911.68015211811314
 20
488.34985560046044
 42
-0.13501580757626597
 10
934.61630555337217
 20
432.97759792349331
 10
936.63158298480118
 20
432.97758246144627
 42
-0.28360421089623689
 10
886.23300958273524
 20
323.25238446416967
 42
0.47343050356491906
 10
885.92740401116828
 20
320.17354235269028
 10
886.6241077800513
 20
319.47683856316149
 42
0.34560774551103135
 10
889.07623142805926
 20
319.18144902268256
 42
0.050356708500250376
 10
907.96311614669514
 20
333.49345926686061
 42
0.47244898358152787
 10
889.81477495438014
 20
519.36318028591438
 42
0.35732547909201867
 10
887.28354002458116
 20
519.11906661931323
 10
885.92775309157935
 20
517.76327968631233
 42
0.47342970239778559
  0
MTEXT
  5
35
330
1F
100
AcDbEntity
  8
Texto
 62
3
100
AcDbMText
 10
937.11187288114331
 20
452.81730984000643
 30
0
 11
-1.8369095307335659E-16
 21
-1
 31
0
 40
2.5
 41
6.0400674662014353
 71
1
 72
5
  1
72x
  7
Standard
 73
1
  0
LWPOLYLINE
  5
36
330
1F
100
AcDbEntity
  8
--NestedParts--
 62
7
100
AcDbPolyline
 90
13
 70
1
 10
846.50085418871242
 20
514.6708443782021
 42
-0.080166838566948811
 10
873.37267548409034
 20
489.76126107682427
 10
871.94765204693624
 20
488.33625950625225
 42
-0.13501580757626597
 10
894.88380548219527
 20
432.96400182928511
 10
896.89908291362428
 20
432.96398636723808
 42
-0.28360421089623689
 10
846.50050951155833
 20
323.23878836996147
 42
0.47343050356491906
 10
846.19490393999138
 20
320.15994625848208
 10
846.8916077088744
 20
319.4632424689533
 42
0.34560774551103135
 10
849.34373135688236
 20
319.16785292847436
 42
0.050356708500250376
 10
868.23061607551824
 20
333.47986317265241
 42
0.47244898358152787
 10
850.08227488320324
 20
519.34958419170619
 42
0.35732547909201867
 10
847.55103995340426
 20
519.105470525105
 10
846.19525302040245
 20
517.74968359210413
 42
0.47342970239778559
  0
MTEXT
  5
37
330
1F
100
AcDbEntity
  8
Texto
 62
3
100
AcDbMText
 10
897.37937280996641
 20
452.80371374579823
 30
0
 11
-1.8369095307335659E-16
 21
-1
 31
0
 40
2.5
 41
6.0400674662014353
 71
1
 72
5
  1
72x
  7
Standard
 73
1
  0
LWPOLYLINE
  5
38
330
1F
100
AcDbEntity
  8
--NestedParts--
 62
7
100
AcDbPolyline
 90
13
 70
1
 10
862.64355156291379
 20
379.37655889274947
 42
-0.080166838566949061
 10
837.73396826153578
 20
352.50473759737156
 10
836.30896669096376
 20
353.92976103452565
 42
-0.13501580757626597
 10
780.93670901399662
 20
330.99360759926662
 10
780.93669355194959
 20
328.97833016783761
 42
-0.28360421089623689
 10
671.211495554673
 20
379.37690356990356
 42
0.47343050356493244
 10
668.13265344319359
 20
379.68250914147052
 10
667.43594965366481
 20
378.98580537258749
 42
0.34560774551102164
 10
667.14056011318587
 20
376.53368172457954
 42
0.050356708500250383
 10
681.45257035736392
 20
357.64679700594365
 42
0.47244898358152865
 10
867.32229137641787
 20
375.79513819825866
 42
0.35732547909201962
 10
867.07817770981671
 20
378.32637312805764
 10
865.72239077681581
 20
379.68216006105945
 42
0.47342970239778559
  0
MTEXT
  5
39
330
1F
100
AcDbEntity
  8
Texto
 62
3
100
AcDbMText
 10
800.77642093050974
 20
328.49804027149548
 30
0
 11
-1
 21
1.2246063538223773E-16
 31
0
 40
2.5
 41
6.0400674662014353
 71
1
 72
5
  1
72x
  7
Standard
 73
1
  0
LWPOLYLINE
  5
3A
330
1F
100
AcDbEntity
  8
--NestedParts--
 62
7
100
AcDbPolyline
 90
13
 70
1
 10
427.2127573055817
 20
387.1145560323435
 42
-0.080166838566949034
 10
402.3031740042037
 20
360.24273473696559
 10
400.87817243363168
 20
361.66775817411968
 42
-0.13501580757626602
 10
345.50591475666454
 20
338.73160473886065
 10
345.50589929461751
 20
336.71632730743164
 42
-0.28360421089623705
 10
235.78070129734087
 20
387.11490070949759
 42
0.47343050356493244
 10
232.70185918586148
 20
387.42050628106455
 10
232.0051553963327
 20
386.72380251218152
 42
0.34560774551102647
 10
231.70976585585376
 20
384.27167886417357
 42
0.050356708500250369
 10
246.02177610003181
 20
365.38479414553768
 42
0.47244898358152848
 10
431.89149711908578
 20
383.53313533785268
 42
0.35732547909200957
 10
431.64738345248463
 20
386.06437026765167
 10
430.29159651948373
 20
387.42015720065348
 42
0.47342970239778559
  0
MTEXT
  5
3B
330
1F
100
AcDbEntity
  8
Texto
 62
3
100
AcDbMText
 10
365.34562667317766
 20
336.23603741108951
 30
0
 11
-1
 21
1.2246063538223773E-16
 31
0
 40
2.5
 41
6.0400674662014353
 71
1
 72
5
  1
72x
  7
Standard
 73
1
  0
LWPOLYLINE
  5
3C
330
1F
100
AcDbEntity
  8
--NestedParts--
 62
7
100
AcDbPolyline
 90
13
 70
1
 10
643.17994734196816
 20
411.61471452002968
 42
-0.080166838566949061
 10
618.27036404059015
 20
384.74289322465177
 10
616.84536247001813
 20
386.16791666180586
 42
-0.13501580757626597
 10
561.473104793051
 20
363.23176322654683
 10
561.473089331004
 20
361.21648579511782
 42
-0.28360421089623677
 10
451.74789133372735
 20
411.61505919718371
 42
0.47343050356493244
 10
448.66904922224796
 20
411.92066476875067
 10
447.97234543271918
 20
411.22396099986764
 42
0.34560774551103135
 10
447.67695589224024
 20
408.77183735185969
 42
0.050356708500250362
 10
461.9889661364183
 20
389.8849526332238
 42
0.47244898358152859
 10
647.85868715547224
 20
408.03329382553886
 42
0.35732547909201962
 10
647.61457348887109
 20
410.56452875533785
 10
646.25878655587019
 20
411.92031568833966
 42
0.47342970239778559
  0
MTEXT
  5
3D
330
1F
100
AcDbEntity
  8
Texto
 62
3
100
AcDbMText
 10
581.31281670956412
 20
360.73619589877569
 30
0
 11
-1
 21
1.2246063538223773E-16
 31
0
 40
2.5
 41
6.0400674662014353
 71
1
 72
5
  1
72x
  7
Standard
 73
1
  0
LWPOLYLINE
  5
3E
330
1F
100
AcDbEntity
  8
--NestedParts--
 62
7
100
AcDbPolyline
 90
13
 70
1
 10
211.98709741891574
 20
411.61471452002962
 42
-0.080166838566949034
 10
187.07751411753773
 20
384.74289322465171
 10
185.65251254696571
 20
386.1679166618058
 42
-0.13501580757626602
 10
130.28025486999857
 20
363.23176322654678
 10
130.28023940795154
 20
361.21648579511776
 42
-0.28360421089623705
 10
20.555041410674935
 20
411.61505919718371
 42
0.47343050356493255
 10
17.476199299195546
 20
411.92066476875067
 10
16.779495509666763
 20
411.22396099986764
 42
0.34560774551102708
 10
16.484105969187826
 20
408.77183735185969
 42
0.050356708500250348
 10
30.796116213365881
 20
389.8849526332238
 42
0.47244898358152843
 10
216.66583723241982
 20
408.03329382553881
 42
0.35732547909200957
 10
216.42172356581867
 20
410.56452875533779
 10
215.06593663281777
 20
411.9203156883396
 42
0.47342970239778487
  0
MTEXT
  5
3F
330
1F
100
AcDbEntity
  8
Texto
 62
3
100
AcDbMText
 10
150.1199667865117
 20
360.73619589877563
 30
0
 11
-1
 21
1.2246063538223773E-16
 31
0
 40
2.5
 41
6.0400674662014353
 71
1
 72
5
  1
72x
  7
Standard
 73
1
  0
LWPOLYLINE
  5
40
330
1F
100
AcDbEntity
  8
--NestedParts--
 62
7
100
AcDbPolyline
 90
13
 70
1
 10
862.62995546870559
 20
419.10905896392649
 42
-0.080166838566949061
 10
837.72037216732758
 20
392.23723766854857
 10
836.29537059675556
 20
393.66226110570267
 42
-0.13501580757626597
 10
780.92311291978842
 20
370.72610767044364
 10
780.92309745774139
 20
368.71083023901463
 42
-0.28360421089623689
 10
671.19789946046478
 20
419.10940364108058
 42
0.47343050356493244
 10
668.11905734898539
 20
419.41500921264753
 10
667.42235355945661
 20
418.71830544376451
 42
0.34560774551102164
 10
667.12696401897767
 20
416.26618179575655
 42
0.050356708500250383
 10
681.43897426315573
 20
397.37929707712067
 42
0.47244898358152865
 10
867.30869528220967
 20
415.52763826943567
 42
0.35732547909201962
 10
867.06458161560852
 20
418.05887319923465
 10
865.70879468260762
 20
419.41466013223646
 42
0.47342970239778559
  0
MTEXT
  5
41
330
1F
100
AcDbEntity
  8
Texto
 62
3
100
AcDbMText
 10
800.76282483630155
 20
368.2305403426725
 30
0
 11
-1
 21
1.2246063538223773E-16
 31
0
 40
2.5
 41
6.0400674662014353
 71
1
 72
5
  1
72x
  7
Standard
 73
1
  0
LWPOLYLINE
  5
42
330
1F
100
AcDbEntity
  8
--NestedParts--
 62
7
100
AcDbPolyline
 90
13
 70
1
 10
427.19916121137345
 20
426.84705610352063
 42
-0.080166838566949034
 10
402.28957790999544
 20
399.97523480814272
 10
400.86457633942342
 20
401.40025824529681
 42
-0.13501580757626602
 10
345.49231866245628
 20
378.46410481003778
 10
345.49230320040925
 20
376.44882737860877
 42
-0.28360421089623711
 10
235.76710520313262
 20
426.84740078067472
 42
0.47343050356493244
 10
232.68826309165323
 20
427.15300635224168
 10
231.99155930212444
 20
426.45630258335865
 42
0.34560774551102647
 10
231.69616976164551
 20
424.00417893535069
 42
0.050356708500250341
 10
246.00818000582356
 20
405.11729421671481
 42
0.47244898358152848
 10
431.87790102487753
 20
423.26563540902981
 42
0.35732547909200957
 10
431.63378735827638
 20
425.7968703388288
 10
430.27800042527548
 20
427.15265727183061
 42
0.47342970239778559
  0
MTEXT
  5
43
330
1F
100
AcDbEntity
  8
Texto
 62
3
100
AcDbMText
 10
365.33203057896941
 20
375.96853748226664
 30
0
 11
-1
 21
1.2246063538223773E-16
 31
0
 40
2.5
 41
6.0400674662014353
 71
1
 72
5
  1
72x
  7
Standard
 73
1
  0
LWPOLYLINE
  5
44
330
1F
100
AcDbEntity
  8
--NestedParts--
 62
7
100
AcDbPolyline
 90
13
 70
1
 10
643.16635124775974
 20
451.34721459120681
 42
-0.080166838566949089
 10
618.25676794638173
 20
424.47539329582889
 10
616.83176637580971
 20
425.900416732983
 42
-0.13501580757626597
 10
561.45950869884257
 20
402.96426329772396
 10
561.45949323679554
 20
400.94898586629495
 42
-0.28360421089623677
 10
451.73429523951893
 20
451.34755926836084
 42
0.47343050356493244
 10
448.65545312803954
 20
451.6531648399278
 10
447.95874933851076
 20
450.95646107104477
 42
0.34560774551103135
 10
447.66335979803182
 20
448.50433742303682
 42
0.050356708500250362
 10
461.97537004220987
 20
429.61745270440093
 42
0.47244898358152859
 10
647.84509106126382
 20
447.765793896716
 42
0.35732547909201962
 10
647.60097739466266
 20
450.297028826515
 10
646.24519046166176
 20
451.65281575951678
 42
0.47342970239778559
  0
MTEXT
  5
45
330
1F
100
AcDbEntity
  8
Texto
 62
3
100
AcDbMText
 10
581.29922061535569
 20
400.46869596995282
 30
0
 11
-1
 21
1.2246063538223773E-16
 31
0
 40
2.5
 41
6.0400674662014353
 71
1
 72
5
  1
72x
  7
Standard
 73
1
  0
LWPOLYLINE
  5
46
330
1F
100
AcDbEntity
  8
--NestedParts--
 62
7
100
AcDbPolyline
 90
13
 70
1
 10
211.97350132470748
 20
451.34721459120675
 42
-0.080166838566949034
 10
187.06391802332948
 20
424.47539329582884
 10
185.63891645275746
 20
425.90041673298293
 42
-0.13501580757626602
 10
130.26665877579032
 20
402.9642632977239
 10
130.26664331374329
 20
400.94898586629489
 42
-0.28360421089623705
 10
20.541445316466678
 20
451.34755926836084
 42
0.47343050356493255
 10
17.462603204987289
 20
451.6531648399278
 10
16.765899415458506
 20
450.95646107104477
 42
0.34560774551102708
 10
16.47050987497957
 20
448.50433742303682
 42
0.050356708500250348
 10
30.782520119157628
 20
429.61745270440093
 42
0.47244898358152843
 10
216.65224113821156
 20
447.76579389671593
 42
0.35732547909200957
 10
216.40812747161041
 20
450.29702882651492
 10
215.05234053860951
 20
451.65281575951673
 42
0.47342970239778487
  0
MTEXT
  5
47
330
1F
100
AcDbEntity
  8
Texto
 62
3
100
AcDbMText
 10
150.10637069230344
 20
400.46869596995276
 30
0
 11
-1
 21
1.2246063538223773E-16
 31
0
 40
2.5
 41
6.0400674662014353
 71
1
 72
5
  1
72x
  7
Standard
 73
1
  0
LWPOLYLINE
  5
48
330
1F
100
AcDbEntity
  8
--NestedParts--
 62
7
100
AcDbPolyline
 90
13
 70
1
 10
862.61635937449739
 20
458.84155903510361
 42
-0.080166838566949089
 10
837.70677607311939
 20
431.9697377397257
 10
836.28177450254736
 20
433.3947611768798
 42
-0.13501580757626597
 10
780.90951682558023
 20
410.45860774162077
 10
780.9095013635332
 20
408.44333031019175
 42
-0.28360421089623689
 10
671.18430336625659
 20
458.8419037122577
 42
0.47343050356493244
 10
668.1054612547772
 20
459.14750928382466
 10
667.40875746524841
 20
458.45080551494164
 42
0.34560774551102164
 10
667.11336792476948
 20
455.99868186693368
 42
0.050356708500250383
 10
681.42537816894753
 20
437.1117971482978
 42
0.47244898358152865
 10
867.29509918800147
 20
455.2601383406128
 42
0.35732547909201962
 10
867.05098552140032
 20
457.79137327041178
 10
865.69519858839942
 20
459.14716020341359
 42
0.47342970239778559
  0
MTEXT
  5
49
330
1F
100
AcDbEntity
  8
Texto
 62
3
100
AcDbMText
 10
800.74922874209335
 20
407.96304041384963
 30
0
 11
-1
 21
1.2246063538223773E-16
 31
0
 40
2.5
 41
6.0400674662014353
 71
1
 72
5
  1
72x
  7
Standard
 73
1
  0
LWPOLYLINE
  5
4A
330
1F
100
AcDbEntity
  8
--NestedParts--
 62
7
100
AcDbPolyline
 90
13
 70
1
 10
427.18556511716514
 20
466.57955617469776
 42
-0.080166838566948978
 10
402.27598181578719
 20
439.70773487931984
 10
400.85098024521517
 20
441.13275831647394
 42
-0.13501580757626602
 10
345.47872256824803
 20
418.19660488121491
 10
345.478707106201
 20
416.1813274497859
 42
-0.28360421089623705
 10
235.75350910892436
 20
466.57990085185185
 42
0.47343050356493244
 10
232.67466699744497
 20
466.8855064234188
 10
231.97796320791619
 20
466.18880265453578
 42
0.34560774551102647
 10
231.68257366743725
 20
463.73667900652782
 42
0.050356708500250369
 10
245.99458391161531
 20
444.84979428789194
 42
0.47244898358152848
 10
431.86430493066928
 20
462.99813548020694
 42
0.35732547909201423
 10
431.62019126406807
 20
465.52937041000592
 10
430.26440433106717
 20
466.88515734300773
 42
0.47342970239778559
  0
MTEXT
  5
4B
330
1F
100
AcDbEntity
  8
Texto
 62
3
100
AcDbMText
 10
365.31843448476116
 20
415.70103755344377
 30
0
 11
-1
 21
1.2246063538223773E-16
 31
0
 40
2.5
 41
6.0400674662014353
 71
1
 72
5
  1
72x
  7
Standard
 73
1
  0
LWPOLYLINE
  5
4C
330
1F
100
AcDbEntity
  8
--NestedParts--
 62
7
100
AcDbPolyline
 90
13
 70
1
 10
643.15275515355154
 20
491.07971466238394
 42
-0.080166838566949089
 10
618.24317185217353
 20
464.207893367006
 10
616.81817028160151
 20
465.63291680416012
 42
-0.13501580757626597
 10
561.44591260463437
 20
442.69676336890109
 10
561.44589714258734
 20
440.68148593747208
 42
-0.28360421089623694
 10
451.72069914531068
 20
491.08005933953797
 42
0.47343050356493244
 10
448.64185703383129
 20
491.38566491110493
 10
447.9451532443025
 20
490.6889611422219
 42
0.34560774551103135
 10
447.64976370382357
 20
488.23683749421394
 42
0.050356708500250348
 10
461.96177394800162
 20
469.34995277557806
 42
0.4724489835815287
 10
647.83149496705562
 20
487.49829396789312
 42
0.35732547909201962
 10
647.58738130045447
 20
490.0295288976921
 10
646.23159436745357
 20
491.38531583069391
 42
0.47342970239778559
  0
MTEXT
  5
4D
330
1F
100
AcDbEntity
  8
Texto
 62
3
100
AcDbMText
 10
581.2856245211475
 20
440.20119604112995
 30
0
 11
-1
 21
1.2246063538223773E-16
 31
0
 40
2.5
 41
6.0400674662014353
 71
1
 72
5
  1
72x
  7
Standard
 73
1
  0
LWPOLYLINE
  5
4E
330
1F
100
AcDbEntity
  8
--NestedParts--
 62
7
100
AcDbPolyline
 90
13
 70
1
 10
211.9599052304992
 20
491.07971466238382
 42
-0.080166838566949
 10
187.0503219291212
 20
464.20789336700591
 10
185.62532035854917
 20
465.63291680416
 42
-0.13501580757626597
 10
130.25306268158204
 20
442.696763368901
 10
130.253047219535
 20
440.68148593747196
 42
-0.28360421089623694
 10
20.527849222258396
 20
491.08005933953791
 42
0.47343050356493255
 10
17.449007110779007
 20
491.38566491110487
 10
16.752303321250224
 20
490.68896114222184
 42
0.34560774551102708
 10
16.456913780771288
 20
488.23683749421389
 42
0.050356708500250376
 10
30.768924024949342
 20
469.349952775578
 42
0.47244898358152865
 10
216.63864504400328
 20
487.498293967893
 42
0.35732547909200957
 10
216.39453137740213
 20
490.029528897692
 10
215.03874444440123
 20
491.3853158306938
 42
0.47342970239778487
  0
MTEXT
  5
4F
330
1F
100
AcDbEntity
  8
Texto
 62
3
100
AcDbMText
 10
150.09277459809516
 20
440.20119604112983
 30
0
 11
-1
 21
1.2246063538223773E-16
 31
0
 40
2.5
 41
6.0400674662014353
 71
1
 72
5
  1
72x
  7
Standard
 73
1
  0
LWPOLYLINE
  5
50
330
1F
100
AcDbEntity
  8
--NestedParts--
 62
7
100
AcDbPolyline
 90
13
 70
1
 10
804.32994209053084
 20
444.02353752424278
 42
-0.080166838566949034
 10
777.45812079515292
 20
468.93312082562079
 10
778.883144232307
 20
470.35812239619281
 42
-0.13501580757626555
 10
755.946990797048
 20
525.73038007315972
 10
753.931713365619
 20
525.73039553520675
 42
-0.28360421089623689
 10
804.33028676768492
 20
635.45559353248336
 42
0.47343050356491906
 10
804.63589233925188
 20
638.53443564396275
 10
803.93918857036886
 20
639.23113943349153
 42
0.34560774551102164
 10
801.4870649223609
 20
639.52652897397047
 42
0.050356708500250348
 10
782.600180203725
 20
625.21451872979242
 42
0.47244898358152743
 10
800.74852139604
 20
439.3447977107387
 42
0.35732547909200862
 10
803.279756325839
 20
439.58891137733985
 10
804.63554325884081
 20
440.94469831034075
 42
0.47342970239778559
  0
MTEXT
  5
51
330
1F
100
AcDbEntity
  8
Texto
 62
3
100
AcDbMText
 10
753.45142346927685
 20
505.89066815664683
 30
0
 11
6.1230317691118863E-17
 21
1
 31
0
 40
2.5
 41
6.0400674662014353
 71
1
 72
5
  1
72x
  7
Standard
 73
1
  0
LWPOLYLINE
  5
52
330
1F
100
AcDbEntity
  8
--NestedParts--
 62
7
100
AcDbPolyline
 90
13
 70
1
 10
764.59744201935371
 20
444.00994143003447
 42
-0.080166838566949089
 10
737.72562072397579
 20
468.91952473141248
 10
739.15064416112989
 20
470.3445263019845
 42
-0.13501580757626555
 10
716.21449072587086
 20
525.71678397895141
 10
714.19921329444185
 20
525.71679944099844
 42
-0.28360421089623722
 10
764.5977866965078
 20
635.44199743827517
 42
0.47343050356491906
 10
764.90339226807475
 20
638.52083954975456
 10
764.20668849919173
 20
639.21754333928334
 42
0.34560774551102164
 10
761.75456485118377
 20
639.51293287976227
 42
0.050356708500250348
 10
742.86768013254789
 20
625.20092263558422
 42
0.47244898358152804
 10
761.01602132486289
 20
439.33120161653039
 42
0.35732547909200862
 10
763.54725625466187
 20
439.57531528313154
 10
764.90304318766368
 20
440.93110221613244
 42
0.47342970239778559
  0
MTEXT
  5
53
330
1F
100
AcDbEntity
  8
Texto
 62
3
100
AcDbMText
 10
713.71892339809972
 20
505.87707206243851
 30
0
 11
6.1230317691118863E-17
 21
1
 31
0
 40
2.5
 41
6.0400674662014353
 71
1
 72
5
  1
72x
  7
Standard
 73
1
  0
LWPOLYLINE
  5
54
330
1F
100
AcDbEntity
  8
--NestedParts--
 62
7
100
AcDbPolyline
 90
13
 70
1
 10
724.86488514454084
 20
443.99640873294572
 42
-0.080166838566949089
 10
697.99306384916292
 20
468.90599203432373
 10
699.418087286317
 20
470.33099360489575
 42
-0.13501580757626555
 10
676.481933851058
 20
525.70325128186266
 10
674.466656419629
 20
525.70326674390969
 42
-0.28360421089623722
 10
724.86522982169492
 20
635.42846474118642
 42
0.47343050356491906
 10
725.17083539326188
 20
638.50730685266581
 10
724.47413162437886
 20
639.20401064219459
 42
0.34560774551102164
 10
722.0220079763709
 20
639.49940018267353
 42
0.050356708500250348
 10
703.135123257735
 20
625.18738993849547
 42
0.47244898358152804
 10
721.28346445005
 20
439.31766891944164
 42
0.35732547909200862
 10
723.814699379849
 20
439.5617825860428
 10
725.17048631285081
 20
440.9175695190437
 42
0.47342970239778559
  0
MTEXT
  5
55
330
1F
100
AcDbEntity
  8
Texto
 62
3
100
AcDbMText
 10
673.98636652328685
 20
505.86353936534977
 30
0
 11
6.1230317691118863E-17
 21
1
 31
0
 40
2.5
 41
6.0400674662014353
 71
1
 72
5
  1
72x
  7
Standard
 73
1
  0
LWPOLYLINE
  5
56
330
1F
100
AcDbEntity
  8
--NestedParts--
 62
7
100
AcDbPolyline
 90
13
 70
1
 10
427.17196902295689
 20
506.31205624587483
 42
-0.080166838566949
 10
402.26238572157888
 20
479.44023495049692
 10
400.83738415100686
 20
480.865258387651
 42
-0.13501580757626583
 10
345.46512647403978
 20
457.929104952392
 10
345.46511101199275
 20
455.91382752096297
 42
-0.28360421089623694
 10
235.73991301471611
 20
506.31240092302892
 42
0.47343050356493244
 10
232.66107090323672
 20
506.61800649459587
 10
231.96436711370794
 20
505.92130272571285
 42
0.34560774551102647
 10
231.668977573229
 20
503.46917907770489
 42
0.050356708500250362
 10
245.98098781740705
 20
484.582294359069
 42
0.47244898358152815
 10
431.85070883646097
 20
502.730635551384
 42
0.35732547909200957
 10
431.60659516985982
 20
505.261870481183
 10
430.25080823685892
 20
506.61765741418481
 42
0.47342970239778559
  0
MTEXT
  5
57
330
1F
100
AcDbEntity
  8
Texto
 62
3
100
AcDbMText
 10
365.3048383905529
 20
455.43353762462084
 30
0
 11
-1
 21
1.2246063538223773E-16
 31
0
 40
2.5
 41
6.0400674662014353
 71
1
 72
5
  1
72x
  7
Standard
 73
1
  0
LWPOLYLINE
  5
58
330
1F
100
AcDbEntity
  8
--NestedParts--
 62
7
100
AcDbPolyline
 90
13
 70
1
 10
643.13915905934334
 20
530.81221473356084
 42
-0.080166838566948756
 10
618.22957575796534
 20
503.94039343818309
 10
616.80457418739331
 20
505.36541687533719
 42
-0.13501580757626602
 10
561.43231651042618
 20
482.42926344007816
 10
561.43230104837914
 20
480.41398600864915
 42
-0.28360421089623683
 10
451.70710305110248
 20
530.81255941071493
 42
0.47343050356491906
 10
448.62826093962309
 20
531.11816498228188
 10
447.93155715009431
 20
530.42146121339886
 42
0.34560774551103135
 10
447.63616760961537
 20
527.9693375653909
 42
0.050356708500250154
 10
461.94817785379342
 20
509.08245284675513
 42
0.47244898358152848
 10
647.81789887284742
 20
527.23079403907
 42
0.35732547909201867
 10
647.57378520624627
 20
529.762028968869
 10
646.21799827324537
 20
531.11781590187081
 42
0.47342970239778559
  0
MTEXT
  5
59
330
1F
100
AcDbEntity
  8
Texto
 62
3
100
AcDbMText
 10
581.2720284269393
 20
479.933696112307
 30
0
 11
-1
 21
1.2246063538223773E-16
 31
0
 40
2.5
 41
6.0400674662014353
 71
1
 72
5
  1
72x
  7
Standard
 73
1
  0
LWPOLYLINE
  5
5A
330
1F
100
AcDbEntity
  8
--NestedParts--
 62
7
100
AcDbPolyline
 90
13
 70
1
 10
211.94630913629095
 20
530.81221473356084
 42
-0.0801668385669489
 10
187.03672583491294
 20
503.94039343818304
 10
185.61172426434092
 20
505.36541687533713
 42
-0.13501580757626597
 10
130.23946658737378
 20
482.4292634400781
 10
130.23945112532675
 20
480.41398600864909
 42
-0.28360421089623672
 10
20.514253128050139
 20
530.81255941071493
 42
0.47343050356491911
 10
17.43541101657075
 20
531.11816498228188
 10
16.738707227041967
 20
530.42146121339886
 42
0.34560774551102708
 10
16.443317686563031
 20
527.9693375653909
 42
0.050356708500250147
 10
30.755327930741085
 20
509.08245284675513
 42
0.47244898358152804
 10
216.62504894979503
 20
527.23079403907
 42
0.35732547909200862
 10
216.38093528319388
 20
529.762028968869
 10
215.02514835019298
 20
531.11781590187081
 42
0.47342970239778487
  0
MTEXT
  5
5B
330
1F
100
AcDbEntity
  8
Texto
 62
3
100
AcDbMText
 10
150.07917850388691
 20
479.93369611230696
 30
0
 11
-1
 21
1.2246063538223773E-16
 31
0
 40
2.5
 41
6.0400674662014353
 71
1
 72
5
  1
72x
  7
Standard
 73
1
  0
LWPOLYLINE
  5
5C
330
1F
100
AcDbEntity
  8
--NestedParts--
 62
7
100
AcDbPolyline
 90
13
 70
1
 10
427.15837292874863
 20
546.04455631705184
 42
-0.080166838566949061
 10
402.24878962737063
 20
519.17273502167393
 10
400.82378805679861
 20
520.597758458828
 42
-0.13501580757626588
 10
345.45153037983147
 20
497.66160502356911
 10
345.45151491778444
 20
495.6463275921401
 42
-0.28360421089623694
 10
235.72631692050786
 20
546.04490099420593
 42
0.47343050356491906
 10
232.64747480902847
 20
546.35050656577289
 10
231.95077101949968
 20
545.65380279688986
 42
0.34560774551102647
 10
231.65538147902075
 20
543.20167914888191
 42
0.050356708500250369
 10
245.9673917231988
 20
524.314794430246
 42
0.47244898358152859
 10
431.83711274225271
 20
542.463135622561
 42
0.35732547909200862
 10
431.59299907565156
 20
544.99437055236
 10
430.23721214265066
 20
546.35015748536182
 42
0.47342970239778559
  0
MTEXT
  5
5D
330
1F
100
AcDbEntity
  8
Texto
 62
3
100
AcDbMText
 10
365.29124229634459
 20
495.16603769579797
 30
0
 11
-1
 21
1.2246063538223773E-16
 31
0
 40
2.5
 41
6.0400674662014353
 71
1
 72
5
  1
72x
  7
Standard
 73
1
  0
LWPOLYLINE
  5
5E
330
1F
100
AcDbEntity
  8
--NestedParts--
 62
7
100
AcDbPolyline
 90
13
 70
1
 10
788.20324810000022
 20
499.8587646470142
 42
-0.0801668385669488
 10
813.11283140137823
 20
526.73058594239194
 10
814.53783297195025
 20
525.30556250523784
 42
-0.13501580757626597
 10
869.91009064891739
 20
548.24171594049687
 10
869.91010611096442
 20
550.25699337192589
 42
-0.28360421089623666
 10
979.635304108241
 20
499.85841996986017
 42
0.47343050356493244
 10
982.71414621972042
 20
499.55281439829321
 10
983.4108500092492
 20
500.24951816717623
 42
0.34560774551102164
 10
983.70623954972814
 20
502.70164181518419
 42
0.050356708500250126
 10
969.39422930555008
 20
521.58852653382
 42
0.47244898358152831
 10
783.52450828649614
 20
503.440185341505
 42
0.35732547909201962
 10
783.76862195309729
 20
500.90895041170603
 10
785.12440888609819
 20
499.55316347870422
 42
0.47342970239778559
  0
MTEXT
  5
5F
330
1F
100
AcDbEntity
  8
Texto
 62
3
100
AcDbMText
 10
850.07037873240427
 20
550.737283268268
 30
0
 11
1
 21
0
 31
0
 40
2.5
 41
6.0400674662014353
 71
1
 72
5
  1
72x
  7
Standard
 73
1
  0
LWPOLYLINE
  5
60
330
1F
100
AcDbEntity
  8
--NestedParts--
 62
7
100
AcDbPolyline
 90
13
 70
1
 10
643.12556296513492
 20
570.544714804738
 42
-0.080166838566949089
 10
618.21597966375691
 20
543.67289350936
 10
616.79097809318489
 20
545.09791694651415
 42
-0.13501580757626597
 10
561.41872041621775
 20
522.16176351125512
 10
561.41870495417072
 20
520.1464860798261
 42
-0.28360421089623694
 10
451.69350695689405
 20
570.545059481892
 42
0.47343050356491906
 10
448.61466484541467
 20
570.850665053459
 10
447.91796105588588
 20
570.153961284576
 42
0.34560774551103135
 10
447.62257151540695
 20
567.701837636568
 42
0.050356708500250376
 10
461.934581759585
 20
548.81495291793215
 42
0.47244898358152876
 10
647.804302778639
 20
566.96329411024715
 42
0.35732547909201867
 10
647.56018911203785
 20
569.49452904004613
 10
646.204402179037
 20
570.85031597304794
 42
0.47342970239778559
  0
MTEXT
  5
61
330
1F
100
AcDbEntity
  8
Texto
 62
3
100
AcDbMText
 10
581.25843233273088
 20
519.666196183484
 30
0
 11
-1
 21
1.2246063538223773E-16
 31
0
 40
2.5
 41
6.0400674662014353
 71
1
 72
5
  1
72x
  7
Standard
 73
1
  0
LWPOLYLINE
  5
62
330
1F
100
AcDbEntity
  8
--NestedParts--
 62
7
100
AcDbPolyline
 90
13
 70
1
 10
211.93271304208267
 20
570.544714804738
 42
-0.080166838566949061
 10
187.02312974070466
 20
543.67289350936
 10
185.59812817013264
 20
545.09791694651415
 42
-0.13501580757626597
 10
130.2258704931655
 20
522.16176351125512
 10
130.22585503111847
 20
520.1464860798261
 42
-0.28360421089623694
 10
20.500657033841854
 20
570.545059481892
 42
0.47343050356491911
 10
17.421814922362465
 20
570.850665053459
 10
16.725111132833682
 20
570.153961284576
 42
0.34560774551102708
 10
16.429721592354745
 20
567.701837636568
 42
0.050356708500250376
 10
30.741731836532804
 20
548.81495291793215
 42
0.47244898358152865
 10
216.61145285558675
 20
566.96329411024715
 42
0.35732547909200862
 10
216.3673391889856
 20
569.49452904004613
 10
215.0115522559847
 20
570.85031597304794
 42
0.47342970239778487
  0
MTEXT
  5
63
330
1F
100
AcDbEntity
  8
Texto
 62
3
100
AcDbMText
 10
150.06558240967863
 20
519.666196183484
 30
0
 11
-1
 21
1.2246063538223773E-16
 31
0
 40
2.5
 41
6.0400674662014353
 71
1
 72
5
  1
72x
  7
Standard
 73
1
  0
LWPOLYLINE
  5
64
330
1F
100
AcDbEntity
  8
--NestedParts--
 62
7
100
AcDbPolyline
 90
13
 70
1
 10
427.14477683454038
 20
585.777056388229
 42
-0.080166838566949061
 10
402.23519353316237
 20
558.90523509285106
 10
400.81019196259035
 20
560.33025853000515
 42
-0.13501580757626597
 10
345.43793428562321
 20
537.39410509474612
 10
345.43791882357618
 20
535.37882766331711
 42
-0.28360421089623683
 10
235.7127208262996
 20
585.77740106538306
 42
0.47343050356491906
 10
232.63387871482021
 20
586.08300663695
 10
231.93717492529143
 20
585.386302868067
 42
0.34560774551102647
 10
231.64178538481249
 20
582.934179220059
 42
0.050356708500250362
 10
245.95379562899055
 20
564.04729450142315
 42
0.47244898358152865
 10
431.82351664804446
 20
582.19563569373815
 42
0.35732547909200862
 10
431.57940298144331
 20
584.72687062353714
 10
430.22361604844241
 20
586.082657556539
 42
0.47342970239778559
  0
MTEXT
  5
65
330
1F
100
AcDbEntity
  8
Texto
 62
3
100
AcDbMText
 10
365.27764620213634
 20
534.898537766975
 30
0
 11
-1
 21
1.2246063538223773E-16
 31
0
 40
2.5
 41
6.0400674662014353
 71
1
 72
5
  1
72x
  7
Standard
 73
1
  0
LWPOLYLINE
  5
66
330
1F
100
AcDbEntity
  8
--NestedParts--
 62
7
100
AcDbPolyline
 90
13
 70
1
 10
788.1896520057918
 20
539.59126471819116
 42
-0.080166838566949061
 10
813.09923530716981
 20
566.46308601356907
 10
814.52423687774183
 20
565.038062576415
 42
-0.13501580757626597
 10
869.896494554709
 20
587.974216011674
 10
869.896510016756
 20
589.989493443103
 42
-0.28360421089623677
 10
979.62170801403261
 20
539.59092004103718
 42
0.47343050356491906
 10
982.700550125512
 20
539.28531446947022
 10
983.39725391504078
 20
539.98201823835325
 42
0.34560774551102164
 10
983.69264345551971
 20
542.4341418863612
 42
0.050356708500250383
 10
969.38063321134166
 20
561.32102660499709
 42
0.47244898358152887
 10
783.51091219228772
 20
543.172685412682
 42
0.35732547909201867
 10
783.75502585888887
 20
540.641450482883
 10
785.11081279188977
 20
539.28566354988118
 42
0.47342970239778559
  0
MTEXT
  5
67
330
1F
100
AcDbEntity
  8
Texto
 62
3
100
AcDbMText
 10
850.05678263819584
 20
590.46978333944514
 30
0
 11
1
 21
0
 31
0
 40
2.5
 41
6.0400674662014353
 71
1
 72
5
  1
72x
  7
Standard
 73
1
  0
LWPOLYLINE
  5
68
330
1F
100
AcDbEntity
  8
--NestedParts--
 62
7
100
AcDbPolyline
 90
13
 70
1
 10
643.11196687092672
 20
610.27721487591509
 42
-0.080166838566949089
 10
618.20238356954872
 20
583.40539358053718
 10
616.77738199897669
 20
584.83041701769127
 42
-0.13501580757626597
 10
561.40512432200956
 20
561.89426358243225
 10
561.40510885996252
 20
559.87898615100323
 42
-0.28360421089623694
 10
451.67991086268586
 20
610.27755955306918
 42
0.47343050356491906
 10
448.60106875120647
 20
610.58316512463614
 10
447.90436496167769
 20
609.88646135575311
 42
0.34560774551103135
 10
447.60897542119875
 20
607.43433770774516
 42
0.050356708500250376
 10
461.9209856653768
 20
588.54745298910927
 42
0.47244898358152876
 10
647.7907066844308
 20
606.69579418142428
 42
0.35732547909201867
 10
647.54659301782965
 20
609.22702911122326
 10
646.19080608482875
 20
610.58281604422507
 42
0.47342970239778559
  0
MTEXT
  5
69
330
1F
100
AcDbEntity
  8
Texto
 62
3
100
AcDbMText
 10
581.24483623852268
 20
559.3986962546611
 30
0
 11
-1
 21
1.2246063538223773E-16
 31
0
 40
2.5
 41
6.0400674662014353
 71
1
 72
5
  1
72x
  7
Standard
 73
1
  0
LWPOLYLINE
  5
6A
330
1F
100
AcDbEntity
  8
--NestedParts--
 62
7
100
AcDbPolyline
 90
13
 70
1
 10
211.91911694787441
 20
610.27721487591509
 42
-0.080166838566949061
 10
187.00953364649641
 20
583.40539358053718
 10
185.58453207592439
 20
584.83041701769127
 42
-0.13501580757626597
 10
130.21227439895725
 20
561.89426358243225
 10
130.21225893691022
 20
559.87898615100323
 42
-0.28360421089623694
 10
20.487060939633597
 20
610.27755955306918
 42
0.47343050356491911
 10
17.408218828154208
 20
610.58316512463614
 10
16.711515038625425
 20
609.88646135575311
 42
0.34560774551102669
 10
16.416125498146492
 20
607.43433770774516
 42
0.050356708500250376
 10
30.728135742324547
 20
588.54745298910927
 42
0.47244898358152865
 10
216.59785676137849
 20
606.69579418142428
 42
0.35732547909200862
 10
216.35374309477734
 20
609.22702911122326
 10
214.99795616177644
 20
610.58281604422507
 42
0.47342970239778487
  0
MTEXT
  5
6B
330
1F
100
AcDbEntity
  8
Texto
 62
3
100
AcDbMText
 10
150.05198631547037
 20
559.3986962546611
 30
0
 11
-1
 21
1.2246063538223773E-16
 31
0
 40
2.5
 41
6.0400674662014353
 71
1
 72
5
  1
72x
  7
Standard
 73
1
  0
LWPOLYLINE
  5
6C
330
1F
100
AcDbEntity
  8
--NestedParts--
 62
7
100
AcDbPolyline
 90
13
 70
1
 10
427.13118074033207
 20
625.5095564594061
 42
-0.080166838566949061
 10
402.22159743895406
 20
598.63773516402819
 10
400.79659586838204
 20
600.06275860118228
 42
-0.13501580757626597
 10
345.4243381914149
 20
577.12660516592325
 10
345.42432272936787
 20
575.11132773449424
 42
-0.28360421089623683
 10
235.69912473209129
 20
625.50990113656019
 42
0.47343050356491906
 10
232.6202826206119
 20
625.81550670812715
 10
231.92357883108312
 20
625.11880293924412
 42
0.34560774551102647
 10
231.62818929060418
 20
622.66667929123616
 42
0.050356708500250362
 10
245.94019953478224
 20
603.77979457260028
 42
0.47244898358152865
 10
431.80992055383615
 20
621.92813576491528
 42
0.35732547909200862
 10
431.565806887235
 20
624.45937069471427
 10
430.2100199542341
 20
625.81515762771608
 42
0.47342970239778559
  0
MTEXT
  5
6D
330
1F
100
AcDbEntity
  8
Texto
 62
3
100
AcDbMText
 10
365.264050107928
 20
574.63103783815211
 30
0
 11
-1
 21
1.2246063538223773E-16
 31
0
 40
2.5
 41
6.0400674662014353
 71
1
 72
5
  1
72x
  7
Standard
 73
1
  0
LWPOLYLINE
  5
6E
330
1F
100
AcDbEntity
  8
--NestedParts--
 62
7
100
AcDbPolyline
 90
13
 70
1
 10
788.20324810000022
 20
579.34812891156
 42
-0.08016683856694902
 10
813.11283140137823
 20
606.21995020693794
 10
814.53783297195025
 20
604.79492676978384
 42
-0.13501580757626597
 10
869.91009064891739
 20
627.73108020504287
 10
869.91010611096442
 20
629.74635763647188
 42
-0.283604210896237
 10
979.635304108241
 20
579.347784234406
 42
0.47343050356491906
 10
982.71414621972042
 20
579.04217866283909
 10
983.4108500092492
 20
579.73888243172212
 42
0.34560774551102164
 10
983.70623954972814
 20
582.19100607973007
 42
0.050356708500250383
 10
969.39422930555008
 20
601.077890798366
 42
0.47244898358152837
 10
783.52450828649614
 20
582.92954960605084
 42
0.35732547909201867
 10
783.76862195309729
 20
580.39831467625186
 10
785.12440888609819
 20
579.04252774325
 42
0.47342970239778559
  0
MTEXT
  5
6F
330
1F
100
AcDbEntity
  8
Texto
 62
3
100
AcDbMText
 10
850.07037873240427
 20
630.226647532814
 30
0
 11
1
 21
0
 31
0
 40
2.5
 41
6.0400674662014353
 71
1
 72
5
  1
72x
  7
Standard
 73
1
  0
LWPOLYLINE
  5
70
330
1F
100
AcDbEntity
  8
--NestedParts--
 62
7
100
AcDbPolyline
 90
13
 70
1
 10
643.09837077671853
 20
650.00971494709222
 42
-0.080166838566949089
 10
618.18878747534052
 20
623.13789365171431
 10
616.7637859047685
 20
624.5629170888684
 42
-0.13501580757626597
 10
561.39152822780136
 20
601.62676365360937
 10
561.39151276575433
 20
599.61148622218036
 42
-0.28360421089623694
 10
451.66631476847766
 20
650.01005962424631
 42
0.47343050356491906
 10
448.58747265699827
 20
650.31566519581327
 10
447.89076886746949
 20
649.61896142693024
 42
0.34560774551103135
 10
447.59537932699055
 20
647.16683777892229
 42
0.050356708500250376
 10
461.90738957116861
 20
628.2799530602864
 42
0.47244898358152876
 10
647.77711059022261
 20
646.4282942526014
 42
0.35732547909201867
 10
647.53299692362145
 20
648.95952918240039
 10
646.17720999062055
 20
650.3153161154022
 42
0.47342970239778559
  0
MTEXT
  5
71
330
1F
100
AcDbEntity
  8
Texto
 62
3
100
AcDbMText
 10
581.23124014431448
 20
599.13119632583823
 30
0
 11
-1
 21
1.2246063538223773E-16
 31
0
 40
2.5
 41
6.0400674662014353
 71
1
 72
5
  1
72x
  7
Standard
 73
1
  0
LWPOLYLINE
  5
72
330
1F
100
AcDbEntity
  8
--NestedParts--
 62
7
100
AcDbPolyline
 90
13
 70
1
 10
211.90552085366616
 20
650.00971494709222
 42
-0.080166838566949061
 10
186.99593755228815
 20
623.13789365171431
 10
185.57093598171613
 20
624.5629170888684
 42
-0.13501580757626597
 10
130.198678304749
 20
601.62676365360937
 10
130.19866284270196
 20
599.61148622218036
 42
-0.28360421089623694
 10
20.473464845425344
 20
650.01005962424631
 42
0.47343050356491911
 10
17.394622733945955
 20
650.31566519581327
 10
16.697918944417172
 20
649.61896142693024
 42
0.34560774551102708
 10
16.402529403938235
 20
647.16683777892229
 42
0.050356708500250376
 10
30.71453964811629
 20
628.2799530602864
 42
0.4724489835815287
 10
216.58426066717024
 20
646.4282942526014
 42
0.35732547909200862
 10
216.34014700056909
 20
648.95952918240039
 10
214.98436006756819
 20
650.3153161154022
 42
0.47342970239778487
  0
MTEXT
  5
73
330
1F
100
AcDbEntity
  8
Texto
 62
3
100
AcDbMText
 10
150.03839022126212
 20
599.13119632583823
 30
0
 11
-1
 21
1.2246063538223773E-16
 31
0
 40
2.5
 41
6.0400674662014353
 71
1
 72
5
  1
72x
  7
Standard
 73
1
  0
LWPOLYLINE
  5
74
330
1F
100
AcDbEntity
  8
--NestedParts--
 62
7
100
AcDbPolyline
 90
13
 70
1
 10
427.11758464612382
 20
665.24205653058311
 42
-0.080166838566949
 10
402.20800134474581
 20
638.3702352352052
 10
400.78299977417379
 20
639.7952586723593
 42
-0.13501580757626597
 10
345.41074209720665
 20
616.85910523710027
 10
345.41072663515962
 20
614.84382780567125
 42
-0.28360421089623683
 10
235.68552863788304
 20
665.2424012077372
 42
0.47343050356491906
 10
232.60668652640365
 20
665.54800677930416
 10
231.90998273687487
 20
664.85130301042113
 42
0.34560774551102647
 10
231.61459319639593
 20
662.39917936241318
 42
0.050356708500250369
 10
245.92660344057398
 20
643.5122946437773
 42
0.47244898358152815
 10
431.7963244596279
 20
661.6606358360923
 42
0.35732547909200862
 10
431.55221079302675
 20
664.19187076589128
 10
430.19642386002585
 20
665.54765769889309
 42
0.47342970239778559
  0
MTEXT
  5
75
330
1F
100
AcDbEntity
  8
Texto
 62
3
100
AcDbMText
 10
365.25045401371978
 20
614.36353790932912
 30
0
 11
-1
 21
1.2246063538223773E-16
 31
0
 40
2.5
 41
6.0400674662014353
 71
1
 72
5
  1
72x
  7
Standard
 73
1
  0
LWPOLYLINE
  5
76
330
1F
100
AcDbEntity
  8
--NestedParts--
 62
7
100
AcDbPolyline
 90
13
 70
1
 10
643.0847746825101
 20
689.74221501826935
 42
-0.080166838566949089
 10
618.17519138113209
 20
662.87039372289144
 10
616.75018981056007
 20
664.29541716004553
 42
-0.13501580757626597
 10
561.37793213359294
 20
641.3592637247865
 10
561.3779166715459
 20
639.34398629335749
 42
-0.28360421089623694
 10
451.65271867426924
 20
689.74255969542344
 42
0.47343050356491906
 10
448.57387656278985
 20
690.0481652669904
 10
447.87717277326107
 20
689.35146149810737
 42
0.34560774551103135
 10
447.58178323278213
 20
686.89933785009941
 42
0.050356708500250376
 10
461.89379347696018
 20
668.01245313146353
 42
0.47244898358152876
 10
647.76351449601418
 20
686.16079432377853
 42
0.35732547909201867
 10
647.519400829413
 20
688.69202925357752
 10
646.16361389641213
 20
690.04781618657933
 42
0.47342970239778559
  0
MTEXT
  5
77
330
1F
100
AcDbEntity
  8
Texto
 62
3
100
AcDbMText
 10
581.21764405010606
 20
638.86369639701536
 30
0
 11
-1
 21
1.2246063538223773E-16
 31
0
 40
2.5
 41
6.0400674662014353
 71
1
 72
5
  1
72x
  7
Standard
 73
1
  0
LWPOLYLINE
  5
78
330
1F
100
AcDbEntity
  8
--NestedParts--
 62
7
100
AcDbPolyline
 90
13
 70
1
 10
211.89192475945703
 20
689.74221501826923
 42
-0.080166838566949
 10
186.98234145807902
 20
662.87039372289132
 10
185.557339887507
 20
664.29541716004542
 42
-0.13501580757626597
 10
130.18508221053986
 20
641.35926372478639
 10
130.18506674849283
 20
639.34398629335737
 42
-0.28360421089623694
 10
20.459868751216206
 20
689.74255969542332
 42
0.47343050356491911
 10
17.381026639736817
 20
690.04816526699028
 10
16.684322850208034
 20
689.35146149810726
 42
0.34560774551102708
 10
16.388933309729097
 20
686.8993378500993
 42
0.050356708500250376
 10
30.700943553907152
 20
668.01245313146342
 42
0.4724489835815287
 10
216.57066457296111
 20
686.16079432377842
 42
0.35732547909200862
 10
216.32655090635996
 20
688.6920292535774
 10
214.97076397335906
 20
690.04781618657921
 42
0.47342970239778487
  0
MTEXT
  5
79
330
1F
100
AcDbEntity
  8
Texto
 62
3
100
AcDbMText
 10
150.02479412705299
 20
638.86369639701525
 30
0
 11
-1
 21
1.2246063538223773E-16
 31
0
 40
2.5
 41
6.0400674662014353
 71
1
 72
5
  1
72x
  7
Standard
 73
1
  0
LWPOLYLINE
  5
7A
330
1F
100
AcDbEntity
  8
--NestedParts--
 62
7
100
AcDbPolyline
 90
13
 70
1
 10
427.10398855191551
 20
704.97455660176024
 42
-0.080166838566949
 10
402.1944052505375
 20
678.10273530638233
 10
400.76940367996548
 20
679.52775874353642
 42
-0.13501580757626597
 10
345.39714600299834
 20
656.59160530827739
 10
345.39713054095131
 20
654.57632787684838
 42
-0.28360421089623689
 10
235.6719325436747
 20
704.97490127891433
 42
0.47343050356491906
 10
232.59309043219531
 20
705.28050685048129
 10
231.89638664266653
 20
704.58380308159826
 42
0.34560774551102647
 10
231.60099710218759
 20
702.13167943359031
 42
0.050356708500250383
 10
245.91300734636567
 20
683.24479471495442
 42
0.47244898358152815
 10
431.78272836541959
 20
701.39313590726942
 42
0.35732547909200862
 10
431.53861469881844
 20
703.92437083706841
 10
430.18282776581754
 20
705.28015777007022
 42
0.47342970239778559
  0
MTEXT
  5
7B
330
1F
100
AcDbEntity
  8
Texto
 62
3
100
AcDbMText
 10
365.23685791951146
 20
654.09603798050625
 30
0
 11
-1
 21
1.2246063538223773E-16
 31
0
 40
2.5
 41
6.0400674662014353
 71
1
 72
5
  1
72x
  7
Standard
 73
1
  0
LWPOLYLINE
  5
7C
330
1F
100
AcDbEntity
  8
--NestedParts--
 62
7
100
AcDbPolyline
 90
13
 70
1
 10
924.19631719535835
 20
852.23229455175988
 42
-0.080166838566948853
 10
951.06813849073626
 20
827.322711250382
 10
949.64311505358216
 20
825.89770967981
 42
-0.13501580757626597
 10
972.57926848884119
 20
770.52545200284283
 10
974.59454592027021
 20
770.52543654079579
 42
-0.28360421089623722
 10
924.19597251820426
 20
660.80023854351907
 42
0.47343050356491906
 10
923.8903669466373
 20
657.72139643203968
 10
924.58707071552033
 20
657.0246926425109
 42
0.34560774551102164
 10
927.03919436352828
 20
656.729303102032
 42
0.050356708500250542
 10
945.92607908216416
 20
671.04131334621013
 42
0.47244898358152804
 10
927.77773788984916
 20
856.911034365264
 42
0.35732547909201867
 10
925.24650296005018
 20
856.66692069866281
 10
923.89071602704837
 20
855.31113376566191
 42
0.47342970239778559
  0
MTEXT
  5
7D
330
1F
100
AcDbEntity
  8
Texto
 62
3
100
AcDbMText
 10
975.07483581661234
 20
790.365163919356
 30
0
 11
-1.8369095307335659E-16
 21
-1
 31
0
 40
2.5
 41
6.0400674662014353
 71
1
 72
5
  1
72x
  7
Standard
 73
1
  0
LWPOLYLINE
  5
7E
330
1F
100
AcDbEntity
  8
--NestedParts--
 62
7
100
AcDbPolyline
 90
13
 70
1
 10
884.39796271901935
 20
852.29219691479659
 42
-0.080166838566949089
 10
911.26978401439726
 20
827.38261361341858
 10
909.84476057724316
 20
825.95761204284656
 42
-0.13501580757626583
 10
932.78091401250219
 20
770.58535436587954
 10
934.79619144393121
 20
770.58533890383251
 42
-0.28360421089623711
 10
884.39761804186526
 20
660.86014090655578
 42
0.47343050356491906
 10
884.0920124702983
 20
657.7812987950764
 10
884.78871623918133
 20
657.08459500554761
 42
0.34560774551102164
 10
887.24083988718928
 20
656.78920546506868
 42
0.050356708500250383
 10
906.12772460582516
 20
671.10121570924673
 42
0.47244898358152865
 10
887.97938341351016
 20
856.97093672830067
 42
0.35732547909201867
 10
885.44814848371118
 20
856.72682306169952
 10
884.09236155070937
 20
855.37103612869862
 42
0.47342970239778559
  0
MTEXT
  5
7F
330
1F
100
AcDbEntity
  8
Texto
 62
3
100
AcDbMText
 10
935.27648134027334
 20
790.42506628239266
 30
0
 11
-1.8369095307335659E-16
 21
-1
 31
0
 40
2.5
 41
6.0400674662014353
 71
1
 72
5
  1
72x
  7
Standard
 73
1
  0
LWPOLYLINE
  5
80
330
1F
100
AcDbEntity
  8
--NestedParts--
 62
7
100
AcDbPolyline
 90
13
 70
1
 10
844.66546264784222
 20
852.27860082058828
 42
-0.080166838566949034
 10
871.53728394322013
 20
827.36901751921027
 10
870.112260506066
 20
825.94401594863825
 42
-0.13501580757626597
 10
893.04841394132507
 20
770.57175827167111
 10
895.06369137275408
 20
770.57174280962408
 42
-0.28360421089623689
 10
844.66511797068813
 20
660.84654481234747
 42
0.47343050356491906
 10
844.35951239912117
 20
657.76770270086809
 10
845.0562161680042
 20
657.0709989113393
 42
0.34560774551102164
 10
847.50833981601215
 20
656.77560937086037
 42
0.050356708500250348
 10
866.395224534648
 20
671.08761961503842
 42
0.47244898358152865
 10
848.246883342333
 20
856.95734063409236
 42
0.35732547909201867
 10
845.715648412534
 20
856.71322696749121
 10
844.35986147953224
 20
855.35744003449031
 42
0.47342970239778559
  0
MTEXT
  5
81
330
1F
100
AcDbEntity
  8
Texto
 62
3
100
AcDbMText
 10
895.54398126909621
 20
790.41147018818424
 30
0
 11
-1.8369095307335659E-16
 21
-1
 31
0
 40
2.5
 41
6.0400674662014353
 71
1
 72
5
  1
72x
  7
Standard
 73
1
  0
LWPOLYLINE
  5
82
330
1F
100
AcDbEntity
  8
--NestedParts--
 62
7
100
AcDbPolyline
 90
13
 70
1
 10
860.79215663837283
 20
716.95400943327093
 42
-0.080166838566949089
 10
835.88257333699482
 20
690.082188137893
 10
834.4575717664228
 20
691.50721157504711
 42
-0.13501580757626597
 10
779.08531408945566
 20
668.57105813978808
 10
779.08529862740863
 20
666.55578070835907
 42
-0.28360421089623689
 10
669.360100630132
 20
716.954354110425
 42
0.47343050356491906
 10
666.28125851865263
 20
717.259959681992
 10
665.58455472912385
 20
716.563255913109
 42
0.34560774551102164
 10
665.28916518864492
 20
714.111132265101
 42
0.050356708500250383
 10
679.601175432823
 20
695.22424754646511
 42
0.47244898358152865
 10
865.47089645187691
 20
713.37258873878011
 42
0.35732547909201867
 10
865.22678278527576
 20
715.90382366857909
 10
863.87099585227486
 20
717.2596106015809
 42
0.47342970239778559
  0
MTEXT
  5
83
330
1F
100
AcDbEntity
  8
Texto
 62
3
100
AcDbMText
 10
798.92502600596879
 20
666.07549081201694
 30
0
 11
-1
 21
1.2246063538223773E-16
 31
0
 40
2.5
 41
6.0400674662014353
 71
1
 72
5
  1
72x
  7
Standard
 73
1
  0
LWPOLYLINE
  5
84
330
1F
100
AcDbEntity
  8
--NestedParts--
 62
7
100
AcDbPolyline
 90
13
 70
1
 10
643.0711785883019
 20
729.47471508944636
 42
-0.08016683856694902
 10
618.1615952869239
 20
702.60289379406845
 10
616.73659371635188
 20
704.02791723122255
 42
-0.13501580757626597
 10
561.36433603938474
 20
681.09176379596352
 10
561.36432057733771
 20
679.0764863645345
 42
-0.28360421089623694
 10
451.63912258006104
 20
729.47505976660045
 42
0.47343050356491906
 10
448.56028046858165
 20
729.78066533816741
 10
447.86357667905287
 20
729.08396156928438
 42
0.34560774551103135
 10
447.56818713857393
 20
726.63183792127643
 42
0.050356708500250376
 10
461.880197382752
 20
707.74495320264054
 42
0.47244898358152876
 10
647.749918401806
 20
725.89329439495555
 42
0.35732547909201867
 10
647.50580473520483
 20
728.42452932475453
 10
646.15001780220393
 20
729.78031625775634
 42
0.47342970239778559
  0
MTEXT
  5
85
330
1F
100
AcDbEntity
  8
Texto
 62
3
100
AcDbMText
 10
581.20404795589786
 20
678.59619646819237
 30
0
 11
-1
 21
1.2246063538223773E-16
 31
0
 40
2.5
 41
6.0400674662014353
 71
1
 72
5
  1
72x
  7
Standard
 73
1
  0
LWPOLYLINE
  5
86
330
1F
100
AcDbEntity
  8
--NestedParts--
 62
7
100
AcDbPolyline
 90
13
 70
1
 10
211.87832866525159
 20
729.47471508944636
 42
-0.080166838566949
 10
186.96874536387358
 20
702.60289379406845
 10
185.54374379330156
 20
704.02791723122255
 42
-0.13501580757626591
 10
130.17148611633445
 20
681.09176379596352
 10
130.17147065428742
 20
679.0764863645345
 42
-0.28360421089623694
 10
20.446272657010791
 20
729.47505976660045
 42
0.47343050356491911
 10
17.367430545531402
 20
729.78066533816741
 10
16.670726756002619
 20
729.08396156928438
 42
0.34560774551102708
 10
16.375337215523682
 20
726.63183792127643
 42
0.050356708500250376
 10
30.687347459701741
 20
707.74495320264054
 42
0.47244898358152865
 10
216.55706847875567
 20
725.89329439495555
 42
0.35732547909200862
 10
216.31295481215452
 20
728.42452932475453
 10
214.95716787915362
 20
729.78031625775634
 42
0.47342970239778487
  0
MTEXT
  5
87
330
1F
100
AcDbEntity
  8
Texto
 62
3
100
AcDbMText
 10
150.01119803284757
 20
678.59619646819237
 30
0
 11
-1
 21
1.2246063538223773E-16
 31
0
 40
2.5
 41
6.0400674662014353
 71
1
 72
5
  1
72x
  7
Standard
 73
1
  0
LWPOLYLINE
  5
88
330
1F
100
AcDbEntity
  8
--NestedParts--
 62
7
100
AcDbPolyline
 90
13
 70
1
 10
427.09039245770725
 20
744.70705667293737
 42
-0.080166838566949
 10
402.18080915632925
 20
717.83523537755946
 10
400.75580758575722
 20
719.26025881471355
 42
-0.13501580757626597
 10
345.38354990879009
 20
696.32410537945452
 10
345.38353444674306
 20
694.30882794802551
 42
-0.28360421089623689
 10
235.65833644946645
 20
744.70740135009146
 42
0.47343050356491906
 10
232.57949433798706
 20
745.01300692165842
 10
231.88279054845827
 20
744.31630315277539
 42
0.34560774551102647
 10
231.58740100797934
 20
741.86417950476743
 42
0.050356708500250376
 10
245.89941125215739
 20
722.97729478613155
 42
0.47244898358152865
 10
431.76913227121133
 20
741.12563597844655
 42
0.35732547909200862
 10
431.52501860461018
 20
743.65687090824554
 10
430.16923167160928
 20
745.01265784124735
 42
0.47342970239778559
  0
MTEXT
  5
89
330
1F
100
AcDbEntity
  8
Texto
 62
3
100
AcDbMText
 10
365.22326182530321
 20
693.82853805168338
 30
0
 11
-1
 21
1.2246063538223773E-16
 31
0
 40
2.5
 41
6.0400674662014353
 71
1
 72
5
  1
72x
  7
Standard
 73
1
  0
LWPOLYLINE
  5
8A
330
1F
100
AcDbEntity
  8
--NestedParts--
 62
7
100
AcDbPolyline
 90
13
 70
1
 10
860.77856054416463
 20
756.686509504448
 42
-0.080166838566949089
 10
835.86897724278663
 20
729.81468820907014
 10
834.44397567221461
 20
731.23971164622424
 42
-0.13501580757626597
 10
779.07171799524747
 20
708.30355821096521
 10
779.07170253320044
 20
706.28828077953619
 42
-0.28360421089623689
 10
669.34650453592383
 20
756.68685418160214
 42
0.47343050356491906
 10
666.26766242444444
 20
756.9924597531691
 10
665.57095863491566
 20
756.29575598428607
 42
0.34560774551102164
 10
665.27556909443672
 20
753.84363233627812
 42
0.050356708500250383
 10
679.58757933861477
 20
734.95674761764224
 42
0.47244898358152865
 10
865.45730035766871
 20
753.10508880995724
 42
0.35732547909201867
 10
865.21318669106756
 20
755.63632373975622
 10
863.85739975806666
 20
756.992110672758
 42
0.47342970239778559
  0
MTEXT
  5
8B
330
1F
100
AcDbEntity
  8
Texto
 62
3
100
AcDbMText
 10
798.91142991176059
 20
705.80799088319407
 30
0
 11
-1
 21
1.2246063538223773E-16
 31
0
 40
2.5
 41
6.0400674662014353
 71
1
 72
5
  1
72x
  7
Standard
 73
1
  0
LWPOLYLINE
  5
8C
330
1F
100
AcDbEntity
  8
--NestedParts--
 62
7
100
AcDbPolyline
 90
13
 70
1
 10
643.05758249409371
 20
769.20721516062349
 42
-0.08016683856694902
 10
618.1479991927157
 20
742.33539386524558
 10
616.72299762214368
 20
743.76041730239967
 42
-0.13501580757626597
 10
561.35073994517654
 20
720.82426386714064
 10
561.35072448312951
 20
718.80898643571163
 42
-0.28360421089623694
 10
451.62552648585284
 20
769.20755983777758
 42
0.47343050356491906
 10
448.54668437437346
 20
769.51316540934454
 10
447.84998058484467
 20
768.81646164046151
 42
0.34560774551103135
 10
447.55459104436574
 20
766.36433799245356
 42
0.050356708500250376
 10
461.86660128854379
 20
747.47745327381767
 42
0.47244898358152876
 10
647.73632230759779
 20
765.62579446613267
 42
0.35732547909201867
 10
647.49220864099664
 20
768.15702939593166
 10
646.13642170799574
 20
769.51281632893347
 42
0.47342970239778559
  0
MTEXT
  5
8D
330
1F
100
AcDbEntity
  8
Texto
 62
3
100
AcDbMText
 10
581.19045186168967
 20
718.3286965393695
 30
0
 11
-1
 21
1.2246063538223773E-16
 31
0
 40
2.5
 41
6.0400674662014353
 71
1
 72
5
  1
72x
  7
Standard
 73
1
  0
LWPOLYLINE
  5
8E
330
1F
100
AcDbEntity
  8
--NestedParts--
 62
7
100
AcDbPolyline
 90
13
 70
1
 10
211.86473257104291
 20
769.20721516062349
 42
-0.080166838566949
 10
186.9551492696649
 20
742.33539386524558
 10
185.53014769909288
 20
743.76041730239967
 42
-0.13501580757626597
 10
130.15789002212574
 20
720.82426386714064
 10
130.15787456007871
 20
718.80898643571163
 42
-0.28360421089623689
 10
20.432676562802111
 20
769.20755983777758
 42
0.47343050356491911
 10
17.353834451322722
 20
769.51316540934454
 10
16.657130661793939
 20
768.81646164046151
 42
0.34560774551102708
 10
16.361741121315003
 20
766.36433799245356
 42
0.050356708500250376
 10
30.673751365493057
 20
747.47745327381767
 42
0.47244898358152865
 10
216.543472384547
 20
765.62579446613267
 42
0.35732547909200862
 10
216.29935871794584
 20
768.15702939593166
 10
214.94357178494494
 20
769.51281632893347
 42
0.47342970239778487
  0
MTEXT
  5
8F
330
1F
100
AcDbEntity
  8
Texto
 62
3
100
AcDbMText
 10
149.99760193863887
 20
718.3286965393695
 30
0
 11
-1
 21
1.2246063538223773E-16
 31
0
 40
2.5
 41
6.0400674662014353
 71
1
 72
5
  1
72x
  7
Standard
 73
1
  0
LWPOLYLINE
  5
90
330
1F
100
AcDbEntity
  8
--NestedParts--
 62
7
100
AcDbPolyline
 90
13
 70
1
 10
427.076796363499
 20
784.43955674411438
 42
-0.080166838566949061
 10
402.167213062121
 20
757.56773544873647
 10
400.74221149154897
 20
758.99275888589057
 42
-0.13501580757626597
 10
345.36995381458183
 20
736.05660545063154
 10
345.3699383525348
 20
734.04132801920252
 42
-0.28360421089623689
 10
235.64474035525819
 20
784.43990142126847
 42
0.47343050356491906
 10
232.5658982437788
 20
784.74550699283543
 10
231.86919445425002
 20
784.0488032239524
 42
0.34560774551102647
 10
231.57380491377108
 20
781.59667957594445
 42
0.050356708500250376
 10
245.88581515794914
 20
762.70979485730857
 42
0.47244898358152865
 10
431.75553617700308
 20
780.85813604962357
 42
0.35732547909200862
 10
431.51142251040193
 20
783.38937097942255
 10
430.15563557740103
 20
784.74515791242436
 42
0.47342970239778559
  0
MTEXT
  5
91
330
1F
100
AcDbEntity
  8
Texto
 62
3
100
AcDbMText
 10
365.20966573109496
 20
733.5610381228604
 30
0
 11
-1
 21
1.2246063538223773E-16
 31
0
 40
2.5
 41
6.0400674662014353
 71
1
 72
5
  1
72x
  7
Standard
 73
1
  0
LWPOLYLINE
  5
92
330
1F
100
AcDbEntity
  8
--NestedParts--
 62
7
100
AcDbPolyline
 90
13
 70
1
 10
860.76496444995621
 20
796.41900957562518
 42
-0.080166838566949089
 10
835.8553811485782
 20
769.54718828024727
 10
834.43037957800618
 20
770.97221171740136
 42
-0.13501580757626597
 10
779.058121901039
 20
748.03605828214233
 10
779.058106438992
 20
746.02078085071332
 42
-0.28360421089623689
 10
669.3329084417154
 20
796.41935425277927
 42
0.47343050356491906
 10
666.254066330236
 20
796.72495982434623
 10
665.55736254070723
 20
796.0282560554632
 42
0.34560774551102164
 10
665.26197300022829
 20
793.57613240745525
 42
0.050356708500250383
 10
679.57398324440635
 20
774.68924768881936
 42
0.47244898358152865
 10
865.44370426346029
 20
792.83758888113437
 42
0.35732547909201867
 10
865.19959059685914
 20
795.36882381093335
 10
863.84380366385824
 20
796.72461074393516
 42
0.47342970239778559
  0
MTEXT
  5
93
330
1F
100
AcDbEntity
  8
Texto
 62
3
100
AcDbMText
 10
798.89783381755217
 20
745.54049095437119
 30
0
 11
-1
 21
1.2246063538223773E-16
 31
0
 40
2.5
 41
6.0400674662014353
 71
1
 72
5
  1
72x
  7
Standard
 73
1
  0
LWPOLYLINE
  5
94
330
1F
100
AcDbEntity
  8
--NestedParts--
 62
7
100
AcDbPolyline
 90
13
 70
1
 10
643.04398639988551
 20
808.93971523180062
 42
-0.08016683856694902
 10
618.13440309850751
 20
782.06789393642271
 10
616.70940152793548
 20
783.4929173735768
 42
-0.13501580757626597
 10
561.33714385096835
 20
760.55676393831777
 10
561.33712838892131
 20
758.54148650688876
 42
-0.28360421089623694
 10
451.61193039164465
 20
808.94005990895471
 42
0.47343050356491906
 10
448.53308828016526
 20
809.24566548052167
 10
447.83638449063648
 20
808.54896171163864
 42
0.34560774551103135
 10
447.54099495015754
 20
806.09683806363068
 42
0.050356708500250376
 10
461.85300519433559
 20
787.2099533449948
 42
0.47244898358152876
 10
647.72272621338959
 20
805.3582945373098
 42
0.35732547909201867
 10
647.47861254678844
 20
807.88952946710879
 10
646.12282561378754
 20
809.2453164001106
 42
0.47342970239778559
  0
MTEXT
  5
95
330
1F
100
AcDbEntity
  8
Texto
 62
3
100
AcDbMText
 10
581.17685576748147
 20
758.06119661054663
 30
0
 11
-1
 21
1.2246063538223773E-16
 31
0
 40
2.5
 41
6.0400674662014353
 71
1
 72
5
  1
72x
  7
Standard
 73
1
  0
LWPOLYLINE
  5
96
330
1F
100
AcDbEntity
  8
--NestedParts--
 62
7
100
AcDbPolyline
 90
13
 70
1
 10
211.85113647683124
 20
808.93971523180051
 42
-0.080166838566949061
 10
186.94155317545324
 20
782.06789393642259
 10
185.51655160488122
 20
783.49291737357669
 42
-0.13501580757626597
 10
130.14429392791408
 20
760.55676393831766
 10
130.14427846586705
 20
758.54148650688865
 42
-0.28360421089623694
 10
20.419080468590444
 20
808.94005990895459
 42
0.47343050356491911
 10
17.340238357111055
 20
809.24566548052155
 10
16.643534567582272
 20
808.54896171163853
 42
0.34560774551102708
 10
16.348145027103335
 20
806.09683806363057
 42
0.050356708500250376
 10
30.66015527128139
 20
787.20995334499469
 42
0.47244898358152865
 10
216.52987629033532
 20
805.35829453730969
 42
0.35732547909200862
 10
216.28576262373417
 20
807.88952946710867
 10
214.92997569073327
 20
809.24531640011048
 42
0.47342970239778487
  0
MTEXT
  5
97
330
1F
100
AcDbEntity
  8
Texto
 62
3
100
AcDbMText
 10
149.9840058444272
 20
758.06119661054652
 30
0
 11
-1
 21
1.2246063538223773E-16
 31
0
 40
2.5
 41
6.0400674662014353
 71
1
 72
5
  1
72x
  7
Standard
 73
1
  0
LWPOLYLINE
  5
98
330
1F
100
AcDbEntity
  8
--NestedParts--
 62
7
100
AcDbPolyline
 90
13
 70
1
 10
427.06320026929075
 20
824.17205681529151
 42
-0.080166838566949061
 10
402.15361696791274
 20
797.3002355199136
 10
400.72861539734072
 20
798.72525895706769
 42
-0.13501580757626597
 10
345.35635772037358
 20
775.78910552180866
 10
345.35634225832655
 20
773.77382809037965
 42
-0.28360421089623689
 10
235.63114426104994
 20
824.1724014924456
 42
0.47343050356491906
 10
232.55230214957055
 20
824.47800706401256
 10
231.85559836004177
 20
823.78130329512953
 42
0.34560774551102647
 10
231.56020881956283
 20
821.32917964712158
 42
0.050356708500250376
 10
245.87221906374089
 20
802.44229492848569
 42
0.47244898358152865
 10
431.74194008279483
 20
820.5906361208007
 42
0.35732547909200862
 10
431.49782641619367
 20
823.12187105059968
 10
430.14203948319278
 20
824.47765798360149
 42
0.47342970239778559
  0
MTEXT
  5
99
330
1F
100
AcDbEntity
  8
Texto
 62
3
100
AcDbMText
 10
365.1960696368867
 20
773.29353819403752
 30
0
 11
-1
 21
1.2246063538223773E-16
 31
0
 40
2.5
 41
6.0400674662014353
 71
1
 72
5
  1
72x
  7
Standard
 73
1
  0
LWPOLYLINE
  5
9A
330
1F
100
AcDbEntity
  8
--NestedParts--
 62
7
100
AcDbPolyline
 90
13
 70
1
 10
804.32994209053084
 20
780.6233708607092
 42
-0.080166838566949034
 10
777.45812079515292
 20
805.53295416208721
 10
778.883144232307
 20
806.95795573265923
 42
-0.13501580757626597
 10
755.946990797048
 20
862.33021340962637
 10
753.931713365619
 20
862.3302288716734
 42
-0.28360421089623677
 10
804.33028676768481
 20
972.05542686895
 42
0.47343050356491906
 10
804.63589233925177
 20
975.1342689804294
 10
803.93918857036874
 20
975.83097276995818
 42
0.34560774551102164
 10
801.48706492236079
 20
976.12636231043712
 42
0.050356708500250348
 10
782.6001802037249
 20
961.81435206625906
 42
0.47244898358152887
 10
800.74852139604
 20
775.94463104720512
 42
0.35732547909201867
 10
803.279756325839
 20
776.18874471380627
 10
804.63554325884081
 20
777.54453164680717
 42
0.47342970239778559
  0
MTEXT
  5
9B
330
1F
100
AcDbEntity
  8
Texto
 62
3
100
AcDbMText
 10
753.45142346927685
 20
842.49050149311324
 30
0
 11
6.1230317691118863E-17
 21
1
 31
0
 40
2.5
 41
6.0400674662014353
 71
1
 72
5
  1
72x
  7
Standard
 73
1
  0
LWPOLYLINE
  5
9C
330
1F
100
AcDbEntity
  8
--NestedParts--
 62
7
100
AcDbPolyline
 90
13
 70
1
 10
764.59744201935371
 20
780.60977476650089
 42
-0.080166838566949089
 10
737.72562072397579
 20
805.5193580678789
 10
739.15064416112989
 20
806.94435963845092
 42
-0.13501580757626597
 10
716.21449072587086
 20
862.31661731541806
 10
714.19921329444185
 20
862.31663277746509
 42
-0.28360421089623677
 10
764.59778669650768
 20
972.0418307747417
 42
0.47343050356491906
 10
764.90339226807464
 20
975.12067288622109
 10
764.20668849919161
 20
975.81737667574987
 42
0.34560774551102164
 10
761.75456485118366
 20
976.11276621622881
 42
0.050356708500250383
 10
742.86768013254778
 20
961.80075597205075
 42
0.47244898358152887
 10
761.01602132486289
 20
775.93103495299681
 42
0.35732547909201867
 10
763.54725625466187
 20
776.175148619598
 10
764.90304318766368
 20
777.53093555259886
 42
0.47342970239778559
  0
MTEXT
  5
9D
330
1F
100
AcDbEntity
  8
Texto
 62
3
100
AcDbMText
 10
713.71892339809972
 20
842.47690539890493
 30
0
 11
6.1230317691118863E-17
 21
1
 31
0
 40
2.5
 41
6.0400674662014353
 71
1
 72
5
  1
72x
  7
Standard
 73
1
  0
LWPOLYLINE
  5
9E
330
1F
100
AcDbEntity
  8
--NestedParts--
 62
7
100
AcDbPolyline
 90
13
 70
1
 10
724.86494194817658
 20
780.59617867229269
 42
-0.080166838566949089
 10
697.99312065279867
 20
805.5057619736707
 10
699.41814408995276
 20
806.93076354424272
 42
-0.13501580757626597
 10
676.48199065469373
 20
862.30302122120986
 10
674.46671322326472
 20
862.30303668325689
 42
-0.28360421089623677
 10
724.86528662533055
 20
972.0282346805335
 42
0.47343050356491906
 10
725.17089219689751
 20
975.10707679201289
 10
724.47418842801449
 20
975.80378058154167
 42
0.34560774551102164
 10
722.02206478000653
 20
976.09917012202061
 42
0.050356708500250383
 10
703.13518006137065
 20
961.78715987784256
 42
0.47244898358152887
 10
721.28352125368576
 20
775.91743885878861
 42
0.35732547909201867
 10
723.81475618348475
 20
776.16155252538977
 10
725.17054311648656
 20
777.51733945839067
 42
0.47342970239778559
  0
MTEXT
  5
9F
330
1F
100
AcDbEntity
  8
Texto
 62
3
100
AcDbMText
 10
673.98642332692259
 20
842.46330930469674
 30
0
 11
6.1230317691118863E-17
 21
1
 31
0
 40
2.5
 41
6.0400674662014353
 71
1
 72
5
  1
72x
  7
Standard
 73
1
  0
LWPOLYLINE
  5
A0
330
1F
100
AcDbEntity
  8
--NestedParts--
 62
7
100
AcDbPolyline
 90
13
 70
1
 10
643.03039030567709
 20
848.67221530297775
 42
-0.08016683856694902
 10
618.12080700429908
 20
821.80039400759983
 10
616.69580543372706
 20
823.22541744475393
 42
-0.13501580757626597
 10
561.32354775675992
 20
800.2892640094949
 10
561.32353229471289
 20
798.27398657806589
 42
-0.28360421089623694
 10
451.59833429743622
 20
848.67255998013184
 42
0.47343050356491906
 10
448.51949218595684
 20
848.97816555169879
 10
447.82278839642805
 20
848.28146178281577
 42
0.34560774551103135
 10
447.52739885594912
 20
845.82933813480781
 42
0.050356708500250376
 10
461.83940910012717
 20
826.94245341617193
 42
0.47244898358152876
 10
647.70913011918117
 20
845.09079460848693
 42
0.35732547909201867
 10
647.46501645258
 20
847.62202953828591
 10
646.10922951957912
 20
848.97781647128772
 42
0.47342970239778559
  0
MTEXT
  5
A1
330
1F
100
AcDbEntity
  8
Texto
 62
3
100
AcDbMText
 10
581.163259673273
 20
797.79369668172376
 30
0
 11
-1
 21
1.2246063538223773E-16
 31
0
 40
2.5
 41
6.0400674662014353
 71
1
 72
5
  1
72x
  7
Standard
 73
1
  0
LWPOLYLINE
  5
A2
330
1F
100
AcDbEntity
  8
--NestedParts--
 62
7
100
AcDbPolyline
 90
13
 70
1
 10
211.8375403826229
 20
848.67221530297763
 42
-0.080166838566949061
 10
186.9279570812449
 20
821.80039400759972
 10
185.50295551067288
 20
823.22541744475382
 42
-0.13501580757626597
 10
130.13069783370574
 20
800.28926400949479
 10
130.13068237165871
 20
798.27398657806577
 42
-0.28360421089623694
 10
20.4054843743821
 20
848.67255998013172
 42
0.47343050356491911
 10
17.326642262902713
 20
848.97816555169868
 10
16.629938473373929
 20
848.28146178281565
 42
0.34560774551102708
 10
16.334548932894993
 20
845.8293381348077
 42
0.050356708500250376
 10
30.646559177073051
 20
826.94245341617182
 42
0.47244898358152865
 10
216.51628019612698
 20
845.09079460848682
 42
0.35732547909200862
 10
216.27216652952583
 20
847.6220295382858
 10
214.91637959652493
 20
848.97781647128761
 42
0.47342970239778487
  0
MTEXT
  5
A3
330
1F
100
AcDbEntity
  8
Texto
 62
3
100
AcDbMText
 10
149.97040975021886
 20
797.79369668172365
 30
0
 11
-1
 21
1.2246063538223773E-16
 31
0
 40
2.5
 41
6.0400674662014353
 71
1
 72
5
  1
72x
  7
Standard
 73
1
  0
LWPOLYLINE
  5
A4
330
1F
100
AcDbEntity
  8
--NestedParts--
 62
7
100
AcDbPolyline
 90
13
 70
1
 10
427.04960417508249
 20
863.90455688646864
 42
-0.080166838566949061
 10
402.14002087370449
 20
837.03273559109073
 10
400.71501930313246
 20
838.45775902824482
 42
-0.13501580757626597
 10
345.34276162616533
 20
815.52160559298579
 10
345.3427461641183
 20
813.50632816155678
 42
-0.28360421089623689
 10
235.61754816684169
 20
863.90490156362273
 42
0.47343050356491906
 10
232.5387060553623
 20
864.21050713518969
 10
231.84200226583351
 20
863.51380336630666
 42
0.34560774551102647
 10
231.54661272535458
 20
861.06167971829871
 42
0.050356708500250376
 10
245.85862296953263
 20
842.17479499966282
 42
0.47244898358152865
 10
431.72834398858657
 20
860.32313619197782
 42
0.35732547909200862
 10
431.48423032198542
 20
862.85437112177681
 10
430.12844338898452
 20
864.21015805477862
 42
0.47342970239778559
  0
MTEXT
  5
A5
330
1F
100
AcDbEntity
  8
Texto
 62
3
100
AcDbMText
 10
365.18247354267845
 20
813.02603826521465
 30
0
 11
-1
 21
1.2246063538223773E-16
 31
0
 40
2.5
 41
6.0400674662014353
 71
1
 72
5
  1
72x
  7
Standard
 73
1
  0
LWPOLYLINE
  5
A6
330
1F
100
AcDbEntity
  8
--NestedParts--
 62
7
100
AcDbPolyline
 90
13
 70
1
 10
643.01679421146889
 20
888.40471537415476
 42
-0.080166838566949089
 10
618.10721091009088
 20
861.53289407877685
 10
616.68220933951886
 20
862.957917515931
 42
-0.13501580757626597
 10
561.30995166255173
 20
840.02176408067191
 10
561.30993620050469
 20
838.0064866492429
 42
-0.28360421089623694
 10
451.584738203228
 20
888.40506005130885
 42
0.47343050356491906
 10
448.50589609174864
 20
888.71066562287581
 10
447.80919230221986
 20
888.01396185399278
 42
0.34560774551103135
 10
447.51380276174092
 20
885.56183820598483
 42
0.050356708500250376
 10
461.825813005919
 20
866.674953487349
 42
0.47244898358152876
 10
647.695534024973
 20
884.823294679664
 42
0.35732547909201867
 10
647.45142035837182
 20
887.35452960946293
 10
646.09563342537092
 20
888.71031654246474
 42
0.47342970239778559
  0
MTEXT
  5
A7
330
1F
100
AcDbEntity
  8
Texto
 62
3
100
AcDbMText
 10
581.14966357906485
 20
837.52619675290077
 30
0
 11
-1
 21
1.2246063538223773E-16
 31
0
 40
2.5
 41
6.0400674662014353
 71
1
 72
5
  1
72x
  7
Standard
 73
1
  0
LWPOLYLINE
  5
A8
330
1F
100
AcDbEntity
  8
--NestedParts--
 62
7
100
AcDbPolyline
 90
13
 70
1
 10
211.82394428841644
 20
888.40471537415476
 42
-0.080166838566949061
 10
186.91436098703844
 20
861.53289407877685
 10
185.48935941646641
 20
862.957917515931
 42
-0.13501580757626597
 10
130.11710173949928
 20
840.02176408067191
 10
130.11708627745224
 20
838.0064866492429
 42
-0.28360421089623694
 10
20.391888280175639
 20
888.40506005130885
 42
0.47343050356491911
 10
17.31304616869625
 20
888.71066562287581
 10
16.616342379167467
 20
888.01396185399278
 42
0.34560774551102708
 10
16.32095283868853
 20
885.56183820598483
 42
0.050356708500250376
 10
30.632963082866585
 20
866.674953487349
 42
0.47244898358152865
 10
216.50268410192052
 20
884.823294679664
 42
0.35732547909200862
 10
216.25857043531937
 20
887.35452960946293
 10
214.90278350231847
 20
888.71031654246474
 42
0.47342970239778487
  0
MTEXT
  5
A9
330
1F
100
AcDbEntity
  8
Texto
 62
3
100
AcDbMText
 10
149.9568136560124
 20
837.52619675290077
 30
0
 11
-1
 21
1.2246063538223773E-16
 31
0
 40
2.5
 41
6.0400674662014353
 71
1
 72
5
  1
72x
  7
Standard
 73
1
  0
LWPOLYLINE
  5
AA
330
1F
100
AcDbEntity
  8
--NestedParts--
 62
7
100
AcDbPolyline
 90
13
 70
1
 10
788.20324810000022
 20
836.45859798348056
 42
-0.08016683856694902
 10
813.11283140137823
 20
863.33041927885847
 10
814.53783297195025
 20
861.90539584170438
 42
-0.13501580757626597
 10
869.91009064891739
 20
884.84154927696341
 10
869.91010611096442
 20
886.85682670839242
 42
-0.283604210896237
 10
979.635304108241
 20
836.45825330632658
 42
0.47343050356491906
 10
982.71414621972042
 20
836.15264773475963
 10
983.4108500092492
 20
836.84935150364265
 42
0.34560774551102164
 10
983.70623954972814
 20
839.30147515165061
 42
0.050356708500250383
 10
969.39422930555008
 20
858.18835987028649
 42
0.47244898358152837
 10
783.52450828649614
 20
840.04001867797137
 42
0.35732547909201867
 10
783.76862195309729
 20
837.50878374817239
 10
785.12440888609819
 20
836.15299681517058
 42
0.47342970239778559
  0
MTEXT
  5
AB
330
1F
100
AcDbEntity
  8
Texto
 62
3
100
AcDbMText
 10
850.07037873240427
 20
887.33711660473455
 30
0
 11
1
 21
0
 31
0
 40
2.5
 41
6.0400674662014353
 71
1
 72
5
  1
72x
  7
Standard
 73
1
  0
LWPOLYLINE
  5
AC
330
1F
100
AcDbEntity
  8
--NestedParts--
 62
7
100
AcDbPolyline
 90
13
 70
1
 10
427.03600808087418
 20
903.63705695764577
 42
-0.080166838566949061
 10
402.12642477949618
 20
876.76523566226786
 10
400.70142320892415
 20
878.190259099422
 42
-0.13501580757626597
 10
345.329165531957
 20
855.25410566416292
 10
345.32915006991
 20
853.23882823273391
 42
-0.28360421089623689
 10
235.60395207263338
 20
903.63740163479986
 42
0.47343050356491906
 10
232.525109961154
 20
903.94300720636681
 10
231.8284061716252
 20
903.24630343748379
 42
0.34560774551102647
 10
231.53301663114627
 20
900.79417978947583
 42
0.050356708500250376
 10
245.84502687532432
 20
881.90729507084
 42
0.47244898358152865
 10
431.71474789437826
 20
900.055636263155
 42
0.35732547909200862
 10
431.47063422777711
 20
902.58687119295394
 10
430.11484729477621
 20
903.94265812595575
 42
0.47342970239778559
  0
MTEXT
  5
AD
330
1F
100
AcDbEntity
  8
Texto
 62
3
100
AcDbMText
 10
365.16887744847014
 20
852.75853833639178
 30
0
 11
-1
 21
1.2246063538223773E-16
 31
0
 40
2.5
 41
6.0400674662014353
 71
1
 72
5
  1
72x
  7
Standard
 73
1
  0
LWPOLYLINE
  5
AE
330
1F
100
AcDbEntity
  8
--NestedParts--
 62
7
100
AcDbPolyline
 90
13
 70
1
 10
211.81034819420827
 20
928.13721544533189
 42
-0.080166838566949061
 10
186.90076489283027
 20
901.265394149954
 10
185.47576332225825
 20
902.69041758710807
 42
-0.13501580757626597
 10
130.10350564529111
 20
879.754264151849
 10
130.10349018324408
 20
877.73898672042
 42
-0.28360421089623694
 10
20.378292185967467
 20
928.137560122486
 42
0.47343050356491911
 10
17.299450074488078
 20
928.44316569405294
 10
16.602746284959295
 20
927.74646192516991
 42
0.34560774551102708
 10
16.307356744480359
 20
925.294338277162
 42
0.050356708500250376
 10
30.619366988658413
 20
906.40745355852607
 42
0.47244898358152865
 10
216.48908800771235
 20
924.55579475084107
 42
0.35732547909200862
 10
216.2449743411112
 20
927.08702968064006
 10
214.8891874081103
 20
928.44281661364187
 42
0.47342970239778487
  0
MTEXT
  5
AF
330
1F
100
AcDbEntity
  8
Texto
 62
3
100
AcDbMText
 10
149.94321756180423
 20
877.2586968240779
 30
0
 11
-1
 21
1.2246063538223773E-16
 31
0
 40
2.5
 41
6.0400674662014353
 71
1
 72
5
  1
72x
  7
Standard
 73
1
  0
LWPOLYLINE
  5
B0
330
1F
100
AcDbEntity
  8
--NestedParts--
 62
7
100
AcDbPolyline
 90
13
 70
1
 10
788.1896520057918
 20
876.19109805465769
 42
-0.08016683856694902
 10
813.09923530716981
 20
903.0629193500356
 10
814.52423687774183
 20
901.6378959128815
 42
-0.13501580757626597
 10
869.896494554709
 20
924.57404934814053
 10
869.896510016756
 20
926.58932677956955
 42
-0.283604210896237
 10
979.62170801403261
 20
876.19075337750371
 42
0.47343050356491906
 10
982.700550125512
 20
875.88514780593675
 10
983.39725391504078
 20
876.58185157481978
 42
0.34560774551102164
 10
983.69264345551971
 20
879.03397522282773
 42
0.050356708500250383
 10
969.38063321134166
 20
897.92085994146362
 42
0.47244898358152837
 10
783.51091219228772
 20
879.7725187491485
 42
0.35732547909201867
 10
783.75502585888887
 20
877.24128381934952
 10
785.11081279188977
 20
875.88549688634771
 42
0.47342970239778559
  0
MTEXT
  5
B1
330
1F
100
AcDbEntity
  8
Texto
 62
3
100
AcDbMText
 10
850.05678263819584
 20
927.06961667591167
 30
0
 11
1
 21
0
 31
0
 40
2.5
 41
6.0400674662014353
 71
1
 72
5
  1
72x
  7
Standard
 73
1
  0
LWPOLYLINE
  5
B2
330
1F
100
AcDbEntity
  8
--NestedParts--
 62
7
100
AcDbPolyline
 90
13
 70
1
 10
647.84494414773576
 20
943.3695570288254
 42
-0.080166838566948853
 10
622.93536084635787
 20
916.49773573344748
 10
621.51035927578585
 20
917.92275917060158
 42
-0.13501580757626597
 10
566.13810159881871
 20
894.98660573534255
 10
566.13808613677168
 20
892.97132830391354
 42
-0.28360421089623694
 10
456.412888139495
 20
943.36990170597949
 42
0.47343050356491906
 10
453.33404602801562
 20
943.67550727754644
 10
452.63734223848684
 20
942.97880350866342
 42
0.34560774551103135
 10
452.3419526980079
 20
940.52667986065546
 42
0.050356708500250376
 10
466.65396294218596
 20
921.63979514201958
 42
0.47244898358152809
 10
652.52368396123984
 20
939.78813633433458
 42
0.35732547909201867
 10
652.27957029463869
 20
942.31937126413357
 10
650.92378336163779
 20
943.67515819713537
 42
0.47342970239778559
  0
MTEXT
  5
B3
330
1F
100
AcDbEntity
  8
Texto
 62
3
100
AcDbMText
 10
585.97781351533183
 20
892.49103840757141
 30
0
 11
-1
 21
1.2246063538223773E-16
 31
0
 40
2.5
 41
6.0400674662014353
 71
1
 72
5
  1
72x
  7
Standard
 73
1
  0
LWPOLYLINE
  5
B4
330
1F
100
AcDbEntity
  8
--NestedParts--
 62
7
100
AcDbPolyline
 90
13
 70
1
 10
427.02241198666593
 20
943.369557028823
 42
-0.080166838566949
 10
402.11282868528792
 20
916.4977357334451
 10
400.6878271147159
 20
917.92275917059919
 42
-0.13501580757626597
 10
345.31556943774876
 20
894.98660573534016
 10
345.31555397570173
 20
892.97132830391115
 42
-0.28360421089623689
 10
235.59035597842512
 20
943.3699017059771
 42
0.47343050356491906
 10
232.51151386694573
 20
943.675507277544
 10
231.81481007741695
 20
942.978803508661
 42
0.34560774551102647
 10
231.519420536938
 20
940.52667986065308
 42
0.050356708500250376
 10
245.83143078111607
 20
921.63979514201719
 42
0.47244898358152865
 10
431.70115180017
 20
939.78813633433219
 42
0.35732547909200862
 10
431.45703813356886
 20
942.31937126413118
 10
430.10125120056796
 20
943.675158197133
 42
0.47342970239778559
  0
MTEXT
  5
B5
330
1F
100
AcDbEntity
  8
Texto
 62
3
100
AcDbMText
 10
365.15528135426189
 20
892.491038407569
 30
0
 11
-1
 21
1.2246063538223773E-16
 31
0
 40
2.5
 41
6.0400674662014353
 71
1
 72
5
  1
72x
  7
Standard
 73
1
  0
LWPOLYLINE
  5
B6
330
1F
100
AcDbEntity
  8
--NestedParts--
 62
7
100
AcDbPolyline
 90
13
 70
1
 10
211.79675209999994
 20
967.8697155165089
 42
-0.080166838566949
 10
186.88716879862193
 20
940.997894221131
 10
185.46216722804991
 20
942.42291765828509
 42
-0.13501580757626597
 10
130.08990955108277
 20
919.48676422302606
 10
130.08989408903574
 20
917.471486791597
 42
-0.28360421089623694
 10
20.364696091759125
 20
967.870060193663
 42
0.47343050356491911
 10
17.285853980279736
 20
968.17566576523
 10
16.589150190750953
 20
967.47896199634692
 42
0.34560774551102708
 10
16.293760650272016
 20
965.026838348339
 42
0.050356708500250376
 10
30.605770894450075
 20
946.13995362970309
 42
0.47244898358152815
 10
216.47549191350402
 20
964.28829482201809
 42
0.35732547909200862
 10
216.23137824690286
 20
966.81952975181707
 10
214.87559131390196
 20
968.17531668481888
 42
0.47342970239778487
  0
MTEXT
  5
B7
330
1F
100
AcDbEntity
  8
Texto
 62
3
100
AcDbMText
 10
149.92962146759589
 20
916.99119689525492
 30
0
 11
-1
 21
1.2246063538223773E-16
 31
0
 40
2.5
 41
6.0400674662014353
 71
1
 72
5
  1
72x
  7
Standard
 73
1
  0
LWPOLYLINE
  5
B8
330
1F
100
AcDbEntity
  8
--NestedParts--
 62
7
100
AcDbPolyline
 90
13
 70
1
 10
788.20324810000022
 20
915.94796224802656
 42
-0.080166838566948909
 10
813.11283140137812
 20
942.81978354340447
 10
814.53783297195014
 20
941.39476010625037
 42
-0.13501580757626597
 10
869.91009064891728
 20
964.3309135415094
 10
869.91010611096431
 20
966.34619097293842
 42
-0.28360421089623689
 10
979.635304108241
 20
915.94761757087258
 42
0.47343050356491906
 10
982.71414621972042
 20
915.64201199930562
 10
983.4108500092492
 20
916.33871576818865
 42
0.34560774551102164
 10
983.70623954972814
 20
918.7908394161966
 42
0.0503567085002505
 10
969.39422930555
 20
937.67772413483249
 42
0.47244898358152826
 10
783.52450828649614
 20
919.52938294251737
 42
0.35732547909201867
 10
783.76862195309729
 20
916.99814801271839
 10
785.12440888609819
 20
915.64236107971658
 42
0.47342970239778559
  0
MTEXT
  5
B9
330
1F
100
AcDbEntity
  8
Texto
 62
3
100
AcDbMText
 10
850.07037873240415
 20
966.82648086928054
 30
0
 11
1
 21
0
 31
0
 40
2.5
 41
6.0400674662014353
 71
1
 72
5
  1
72x
  7
Standard
 73
1
  0
LWPOLYLINE
  5
BA
330
1F
100
AcDbEntity
  8
--NestedParts--
 62
7
100
AcDbPolyline
 90
13
 70
1
 10
647.83134805352756
 20
983.10205709999991
 42
-0.080166838566948978
 10
622.92176475214956
 20
956.230235804622
 10
621.49676318157753
 20
957.65525924177609
 42
-0.13501580757626597
 10
566.1245055046104
 20
934.71910580651706
 10
566.12449004256337
 20
932.703828375088
 42
-0.28360421089623683
 10
456.39929204528681
 20
983.102401777154
 42
0.47343050356491906
 10
453.32044993380742
 20
983.408007348721
 10
452.62374614427864
 20
982.71130357983793
 42
0.34560774551103135
 10
452.3283566037997
 20
980.25917993183
 42
0.050356708500250376
 10
466.64036684797776
 20
961.37229521319409
 42
0.47244898358152809
 10
652.51008786703164
 20
979.52063640550909
 42
0.35732547909201867
 10
652.26597420043049
 20
982.05187133530808
 10
650.91018726742959
 20
983.40765826830989
 42
0.47342970239778559
  0
MTEXT
  5
BB
330
1F
100
AcDbEntity
  8
Texto
 62
3
100
AcDbMText
 10
585.96421742112352
 20
932.22353847874592
 30
0
 11
-1
 21
1.2246063538223773E-16
 31
0
 40
2.5
 41
6.0400674662014353
 71
1
 72
5
  1
72x
  7
Standard
 73
1
  0
LWPOLYLINE
  5
BC
330
1F
100
AcDbEntity
  8
--NestedParts--
 62
7
100
AcDbPolyline
 90
13
 70
1
 10
427.00881589245762
 20
983.10205709999991
 42
-0.080166838566949
 10
402.09923259107961
 20
956.230235804622
 10
400.67423102050759
 20
957.65525924177609
 42
-0.13501580757626597
 10
345.30197334354045
 20
934.71910580651706
 10
345.30195788149342
 20
932.703828375088
 42
-0.28360421089623689
 10
235.57675988421681
 20
983.102401777154
 42
0.47343050356491906
 10
232.49791777273742
 20
983.408007348721
 10
231.80121398320864
 20
982.71130357983793
 42
0.34560774551102647
 10
231.5058244427297
 20
980.25917993183
 42
0.050356708500250376
 10
245.81783468690776
 20
961.37229521319409
 42
0.47244898358152826
 10
431.6875557059617
 20
979.52063640550909
 42
0.35732547909200862
 10
431.44344203936055
 20
982.05187133530808
 10
430.08765510635965
 20
983.40765826830989
 42
0.47342970239778559
  0
MTEXT
  5
BD
330
1F
100
AcDbEntity
  8
Texto
 62
3
100
AcDbMText
 10
365.14168526005358
 20
932.22353847874592
 30
0
 11
-1
 21
1.2246063538223773E-16
 31
0
 40
2.5
 41
6.0400674662014353
 71
1
 72
5
  1
72x
  7
Standard
 73
1
  0
LWPOLYLINE
  5
BE
330
1F
100
AcDbEntity
  8
Stats
 62
151
100
AcDbPolyline
 90
5
 70
1
 10
0
 20
-25
 10
250
 20
-25
 10
250
 20
-105
 10
0
 20
-105
 10
0
 20
-25
  0
TEXT
  5
BF
330
1F
100
AcDbEntity
  8
Stats
 62
60
100
AcDbText
 10
2
 20
-37
 30
0
 40
10
  1
Production Qty: 1
  7
Standard
100
AcDbText
  0
TEXT
  5
C0
330
1F
100
AcDbEntity
  8
Stats
 62
60
100
AcDbText
 10
2
 20
-49
 30
0
 40
10
  1
Sheet 1 (1000,00 x 1000,00)
  7
Standard
100
AcDbText
  0
TEXT
  5
C1
330
1F
100
AcDbEntity
  8
Stats
 62
60
100
AcDbText
 10
2
 20
-61
 30
0
 40
10
  1
Parts Nested: 72
  7
Standard
100
AcDbText
  0
TEXT
  5
C2
330
1F
100
AcDbEntity
  8
Stats
 62
60
100
AcDbText
 10
2
 20
-73
 30
0
 40
10
  1
Util (Nest): 16,59%
  7
Standard
100
AcDbText
  0
TEXT
  5
C3
330
1F
100
AcDbEntity
  8
Stats
 62
60
100
AcDbText
 10
2
 20
-85
 30
0
 40
10
  1
Util (Sheet): 10,75%
  7
Standard
100
AcDbText
  0
TEXT
  5
C4
330
1F
100
AcDbEntity
  8
Stats
 62
60
100
AcDbText
 10
2
 20
-97
 30
0
 40
10
  1
Cut Distance: 34642,67mm
  7
Standard
100
AcDbText
  0
ENDSEC
  0
SECTION
  2
OBJECTS
  0
DICTIONARY
  5
C
330
0
100
AcDbDictionary
280
0
281
1
  3
ACAD_SCALELIST
350
CA
  3
ACAD_COLOR
350
DC
  3
ACAD_FIELDLIST
350
DD
  3
ACAD_GROUP
350
D
  3
ACAD_IMAGE_DICT
350
DE
  3
ACAD_LAYOUT
350
1A
  3
ACAD_MATERIAL
350
DF
  3
ACAD_MLEADERSTYLE
350
E0
  3
ACAD_MLINESTYLE
350
17
  3
ACAD_PLOTSETTINGS
350
19
  3
ACAD_PLOTSTYLENAME
350
E
  3
ACAD_TABLESTYLE
350
E2
  3
ACDB_RECOMPOSE_DATA
350
E6
  3
AcDbVariableDictionary
350
E7
  3
ACAD_VISUALSTYLE
350
EA
  3
DWGPROPS
350
EB
  0
DICTIONARY
  5
E4
330
E3
100
AcDbDictionary
280
0
281
1
  3
ACAD_ROUNDTRIP_2008_TABLESTYLE_CELLSTYLEMAP
360
E5
  0
DICTIONARY
  5
CA
102
{ACAD_REACTORS
330
C
102
}
330
C
100
AcDbDictionary
280
0
281
1
  0
DICTIONARY
  5
DC
102
{ACAD_REACTORS
330
C
102
}
330
C
100
AcDbDictionary
280
0
281
1
  0
FIELDLIST
  5
DD
102
{ACAD_REACTORS
330
C
102
}
330
C
100
AcDbIdSet
100
AcDbFieldList
  0
DICTIONARY
  5
D
102
{ACAD_REACTORS
330
C
102
}
330
C
100
AcDbDictionary
280
0
281
1
  0
DICTIONARY
  5
DE
102
{ACAD_REACTORS
330
C
102
}
330
C
100
AcDbDictionary
280
0
281
1
  0
DICTIONARY
  5
1A
102
{ACAD_REACTORS
330
C
102
}
330
C
100
AcDbDictionary
280
0
281
1
  3
Layout1
350
1E
  3
Model
350
22
  0
DICTIONARY
  5
DF
102
{ACAD_REACTORS
330
C
102
}
330
C
100
AcDbDictionary
280
0
281
1
  0
DICTIONARY
  5
E0
102
{ACAD_REACTORS
330
C
102
}
330
C
100
AcDbDictionary
280
0
281
1
  3
Standard
350
E1
  0
DICTIONARY
  5
17
102
{ACAD_REACTORS
330
C
102
}
330
C
100
AcDbDictionary
280
0
281
1
  3
STANDARD
350
18
  0
DICTIONARY
  5
19
102
{ACAD_REACTORS
330
C
102
}
330
C
100
AcDbDictionary
280
0
281
1
  0
ACDBDICTIONARYWDFLT
  5
E
102
{ACAD_REACTORS
330
C
102
}
330
C
100
AcDbDictionary
280
0
281
1
  3
Normal
350
F
100
AcDbDictionaryWithDefault
340
F
  0
ACDBPLACEHOLDER
  5
F
102
{ACAD_REACTORS
330
E
102
}
330
E
  0
DICTIONARY
  5
E2
102
{ACAD_REACTORS
330
C
102
}
330
C
100
AcDbDictionary
280
0
281
1
  3
Standard
350
E3
  0
XRECORD
  5
E6
102
{ACAD_REACTORS
330
C
102
}
330
C
100
AcDbXrecord
280
1
 90
1
330
E3
  0
DICTIONARY
  5
E7
102
{ACAD_REACTORS
330
C
102
}
330
C
100
AcDbDictionary
280
0
281
1
  3
DIMASSOC
350
E8
  3
HIDETEXT
350
E9
  0
DICTIONARY
  5
EA
102
{ACAD_REACTORS
330
C
102
}
330
C
100
AcDbDictionary
280
0
281
1
  0
XRECORD
  5
EB
102
{ACAD_REACTORS
330
C
102
}
330
C
100
AcDbXrecord
280
0
  1
DWGPROPS COOKIE
  2

  3

  4

  6

  7

  8

  9

300
=
301
=
302
=
303
=
304
=
305
=
306
=
307
=
308
=
309
=
 40
0
 41
2461117.7778029051
 42
2461117.7778029051
  1

 90
0
  0
CELLSTYLEMAP
  5
E5
102
{ACAD_REACTORS
330
E4
102
}
330
E4
100
AcDbCellStyleMap
 90
3
300
CELLSTYLE
  1
TABLEFORMAT_BEGIN
 90
5
170
0
309
TABLEFORMAT_END
  1
CELLSTYLE_BEGIN
 90
3
 91
2
300
_DATA
309
CELLSTYLE_END
300
CELLSTYLE
  1
TABLEFORMAT_BEGIN
 90
5
170
0
309
TABLEFORMAT_END
  1
CELLSTYLE_BEGIN
 90
1
 91
2
300
_TITLE
309
CELLSTYLE_END
300
CELLSTYLE
  1
TABLEFORMAT_BEGIN
 90
5
170
0
309
TABLEFORMAT_END
  1
CELLSTYLE_BEGIN
 90
2
 91
2
300
_HEADER
309
CELLSTYLE_END
  0
LAYOUT
  5
1E
102
{ACAD_REACTORS
330
1A
102
}
330
1A
100
AcDbPlotSettings
  1

  2
C:\Program Files\AutoCAD 2002\plotters\DWF ePlot (optimized for plotting).pc3
  4

  6

 40
0
 41
0
 42
0
 43
0
 44
0
 45
0
 46
0
 47
0
 48
0
 49
0
140
0
141
0
142
1
143
1
 70
688
 72
1
 73
1
 74
1
  7
acad.stb
 75
16
 76
0
 77
0
 78
0
147
1
148
0
149
0
100
AcDbLayout
  1
Layout1
 70
1
 71
1
 10
0
 20
0
 11
420
 21
297
 12
0
 22
0
 32
0
 14
0
 24
0
 34
0
 15
0
 25
0
 35
0
146
0
 13
0
 23
0
 33
0
 16
1
 26
0
 36
0
 17
0
 27
1
 37
0
 76
0
330
C5
  0
LAYOUT
  5
22
102
{ACAD_REACTORS
330
1A
102
}
330
1A
100
AcDbPlotSettings
  1

  2
C:\Program Files\AutoCAD 2002\plotters\DWF ePlot (optimized for plotting).pc3
  4

  6

 40
0
 41
0
 42
0
 43
0
 44
0
 45
0
 46
0
 47
0
 48
0
 49
0
140
0
141
0
142
1
143
1
 70
1712
 72
1
 73
1
 74
0
  7
acad.stb
 75
0
 76
0
 77
0
 78
0
147
1
148
0
149
0
100
AcDbLayout
  1
Model
 70
1
 71
0
 10
0
 20
0
 11
12
 21
9
 12
0
 22
0
 32
0
 14
0
 24
0
 34
0
 15
0
 25
0
 35
0
146
0
 13
0
 23
0
 33
0
 16
1
 26
0
 36
0
 17
0
 27
1
 37
0
 76
0
330
1F
  0
MLEADERSTYLE
  5
E1
102
{ACAD_REACTORS
330
E0
102
}
330
E0
100
AcDbMLeaderStyle
170
2
171
1
172
0
 90
2
 40
0
 41
0
173
1
 91
0
340
0
 92
-2
290
1
 42
0.09
292
1
 43
0.36
  3
Standard
341
0
 44
0.18
300

342
0
174
1
178
1
175
1
176
0
 93
0
 45
0.18
292
0
297
0
 46
0
343
0
 94
0
 47
1
 49
1
140
1
293
1
141
0
294
1
177
0
142
1
295
0
296
0
143
0.125
  0
MLINESTYLE
  5
18
102
{ACAD_REACTORS
330
17
102
}
330
17
100
AcDbMlineStyle
  2
STANDARD
 70
0
  3

 51
90
 52
90
 71
2
 49
0.5
 62
0
  6
ByLayer
 49
-0.5
 62
0
  6
ByLayer
  0
TABLESTYLE
  5
E3
102
{ACAD_XDICTIONARY
360
E4
102
}
102
{ACAD_REACTORS
330
E2
102
}
330
E2
100
AcDbTableStyle
  3

 70
0
 71
0
 40
0.06
 41
0.06
280
0
281
0
  7
Standard
140
0.18
170
1
 62
0
283
0
 90
512
 91
0
274
-2
284
1
 64
0
275
-2
285
1
 65
0
276
-2
286
1
 66
0
277
-2
287
1
 67
0
278
-2
288
1
 68
0
279
-2
289
1
 69
0
  7
Standard
140
0.18
170
1
 62
0
283
0
 90
512
 91
0
274
-2
284
1
 64
0
275
-2
285
1
 65
0
276
-2
286
1
 66
0
277
-2
287
1
 67
0
278
-2
288
1
 68
0
279
-2
289
1
 69
0
  7
Standard
140
0.18
170
1
 62
0
283
0
 90
512
 91
0
274
-2
284
1
 64
0
275
-2
285
1
 65
0
276
-2
286
1
 66
0
277
-2
287
1
 67
0
278
-2
288
1
 68
0
279
-2
289
1
 69
0
  0
DICTIONARYVAR
  5
E8
102
{ACAD_REACTORS
330
E7
102
}
330
E7
100
DictionaryVariables
280
0
  1
1
  0
DICTIONARYVAR
  5
E9
102
{ACAD_REACTORS
330
E7
102
}
330
E7
100
DictionaryVariables
280
0
  1
2
  0
ENDSEC
999
Created By CadLib version 4.0.38.30
999
CadLib website: www.woutware.com
  0
EOF
